<svg width="759" height="471" viewBox="0 0 759 471" fill="none" xmlns="http://www.w3.org/2000/svg">
<path d="M25.6644 211.326C-45.725 273.274 53.4269 335.063 63.3421 333.343C37.563 378.079 74.6755 381.601 93.0881 388.403C97.7152 419.358 122.834 477.579 186.291 462.824C249.748 448.07 268.257 428.859 269.579 421.098C283.46 437.732 324.46 471 377.413 471C430.365 471 479.62 430.849 497.628 410.773C504.899 429.049 538.478 461.174 614.627 443.468C690.776 425.763 700.559 389.056 695.932 372.916C810.154 315.692 743.525 256.168 695.932 233.559C753.622 146.852 665.766 115.965 614.627 111.36C620.576 84.3843 609.868 25.1774 519.441 4.15224C429.014 -16.8729 378.645 47.053 364.764 81.6442C129.972 27.0525 142.664 121.156 178.358 175.032C151.257 166.481 82.7759 161.768 25.6644 211.326Z" fill="#285125"/>
</svg>
