<svg width="257" height="330" viewBox="0 0 257 330" fill="none" xmlns="http://www.w3.org/2000/svg">
<path d="M87.527 242.696C87.3557 240.266 44.0719 204.824 30.2516 182.307C16.3585 159.673 0.621602 133.372 10.007 106.584C19.3923 79.7974 62.1153 96.0411 41.4797 126.518" stroke="#825028" stroke-width="12.6883" stroke-linecap="round"/>
<ellipse cx="59.4903" cy="57.7976" rx="30.7494" ry="28.9934" transform="rotate(6.47928 59.4903 57.7976)" fill="#C5824D"/>
<ellipse cx="26.2025" cy="20.0563" rx="26.2025" ry="20.0563" transform="matrix(0.919768 0.392462 -0.392776 0.919634 47.8838 32.0017)" fill="#FADFCB"/>
<ellipse cx="30.7494" cy="28.9934" rx="30.7494" ry="28.9934" transform="matrix(-0.993613 -0.112844 -0.112844 0.993613 253.484 52.9993)" fill="#C5824D"/>
<ellipse cx="26.2025" cy="20.0563" rx="26.2025" ry="20.0563" transform="matrix(-0.984352 0.176213 0.176549 0.984292 236.756 55.8018)" fill="#FADFCB"/>
<ellipse cx="136.003" cy="83.1307" rx="83.8256" ry="71.2142" transform="rotate(6.47928 136.003 83.1307)" fill="#C5824D"/>
<path d="M133.098 47.2094C142.079 48.2293 151.349 56.372 158.195 66.8937C166.735 58.9984 177.167 53.9657 186.216 54.9934C204.564 57.0775 217.495 75.8748 215.098 96.9788C212.702 118.083 192.831 129.357 172.349 129.078C163.886 128.962 157.302 128.582 152.219 127.94C145.96 127.952 137.081 126.6 124.418 123.634C105.622 117.969 93.1385 102.753 95.5353 81.6486C97.9321 60.5446 114.75 45.1256 133.098 47.2094Z" fill="#FADFCB"/>
<ellipse cx="161.474" cy="107.159" rx="23.5564" ry="17.7702" transform="rotate(6.47928 161.474 107.159)" fill="#757376"/>
<ellipse cx="166.112" cy="97.6941" rx="12.9682" ry="7.08134" transform="rotate(6.47928 166.112 97.6941)" fill="#1F1F1F"/>
<path d="M180.358 108.385C180.136 110.344 179.504 112.236 178.499 113.955C177.494 115.674 176.136 117.185 174.501 118.402C172.867 119.619 170.988 120.518 168.973 121.049C166.958 121.579 164.845 121.73 162.756 121.492C160.667 121.255 158.642 120.634 156.797 119.666C154.952 118.697 153.323 117.399 152.003 115.847C150.683 114.294 149.698 112.517 149.104 110.617C148.51 108.716 148.319 106.73 148.542 104.772L164.45 106.578L180.358 108.385Z" fill="#861D20"/>
<mask id="mask0_1005_255" style="mask-type:alpha" maskUnits="userSpaceOnUse" x="149" y="105" width="33" height="18">
<path d="M181.045 109.212C180.82 111.199 180.184 113.12 179.174 114.866C178.165 116.611 176.801 118.146 175.161 119.383C173.521 120.62 171.637 121.536 169.617 122.076C167.597 122.617 165.479 122.773 163.386 122.536C161.293 122.298 159.264 121.671 157.417 120.691C155.569 119.711 153.938 118.396 152.618 116.823C151.297 115.249 150.312 113.448 149.72 111.521C149.127 109.593 148.938 107.579 149.164 105.591L165.105 107.401L181.045 109.212Z" fill="#6C3436"/>
</mask>
<g mask="url(#mask0_1005_255)">
<path d="M144.953 120.333C145.151 118.586 145.827 116.912 146.943 115.405C148.059 113.897 149.593 112.587 151.456 111.548C153.32 110.509 155.477 109.762 157.805 109.349C160.132 108.937 162.585 108.867 165.022 109.144C167.459 109.421 169.834 110.039 172.01 110.963C174.185 111.887 176.12 113.098 177.703 114.529C179.287 115.959 180.487 117.58 181.237 119.299C181.986 121.019 182.27 122.802 182.072 124.548L163.512 122.44L144.953 120.333Z" fill="#FB4D50"/>
</g>
<path d="M200.207 81.8476C200.207 81.8476 188.049 84.9448 188.983 86.1369C189.917 87.3289 199.181 91.601 199.181 91.601" stroke="black" stroke-width="4.34072" stroke-linecap="round"/>
<path d="M125.418 75.8439C125.418 75.8439 137.576 78.9412 136.642 80.1332C135.708 81.3253 126.444 85.5973 126.444 85.5973" stroke="black" stroke-width="4.34072" stroke-linecap="round"/>
<path d="M86.5342 212.142C86.5342 212.142 88.8359 248.656 79.2293 257.188C69.9888 265.394 46.9791 272.569 46.9791 272.569" stroke="#C5824D" stroke-width="40.4026" stroke-linecap="round"/>
<path d="M168.799 241.444C168.799 241.444 195.672 246.36 203.77 256.843C217.21 274.24 205.829 294.231 205.829 294.231" stroke="#B9743D" stroke-width="40.4026" stroke-linecap="round"/>
<path d="M239.99 127.479C239.99 127.479 207.48 155.923 195.045 158.913C179.265 162.707 172.133 161.599 172.133 161.599" stroke="#B9743D" stroke-width="33.1878" stroke-linecap="round"/>
<path d="M163.253 245.191C183.663 243.119 180.519 163.488 170.052 159.617C163.952 157.361 120.937 131.357 95.3574 150.112C72.0822 167.179 78.0579 197.365 77.4328 215.134C74.0746 241.526 142.842 247.262 163.253 245.191Z" fill="#C5824D" stroke="#C5824D" stroke-width="34.058" stroke-linecap="round"/>
<path d="M114.646 194.158C115.402 175.412 135.221 167.685 145.035 166.164C154.54 165.273 173.232 171.339 171.968 202.73C170.387 241.968 127.268 230.452 123.104 225.751C118.408 220.45 113.702 217.591 114.646 194.158Z" fill="#FADFCB" stroke="#FADFCB" stroke-width="12.6883" stroke-linecap="round"/>
<path d="M83.4133 152.681C83.4133 152.681 77.2613 141.077 71.5096 128.598C61.8678 107.681 64.2013 83.0555 64.2013 83.0555" stroke="#E28C48" stroke-width="33.1878" stroke-linecap="round"/>
<ellipse cx="44.6951" cy="279.999" rx="29.5197" ry="19.6798" transform="rotate(63.8851 44.6951 279.999)" fill="#C5824D"/>
<ellipse cx="210.366" cy="302.926" rx="30.6639" ry="20.6151" transform="rotate(13.2042 210.366 302.926)" fill="#B9743D"/>
</svg>
