<svg width="291" height="341" viewBox="0 0 291 341" fill="none" xmlns="http://www.w3.org/2000/svg">
<ellipse cx="81.2501" cy="58.2814" rx="31.1044" ry="29.3281" transform="rotate(4.9232 81.2501 58.2814)" fill="#C5824D"/>
<ellipse cx="26.505" cy="20.2878" rx="26.505" ry="20.2878" transform="matrix(0.930086 0.367341 -0.367658 0.929961 68.8047 32.5159)" fill="#FADFCB"/>
<ellipse cx="31.1044" cy="29.3281" rx="31.1044" ry="29.3281" transform="matrix(-0.996311 -0.0858203 -0.0858203 0.996311 277.273 48.1003)" fill="#C5824D"/>
<ellipse cx="26.505" cy="20.2878" rx="26.505" ry="20.2878" transform="matrix(-0.979204 0.202878 0.203212 0.979135 260.436 51.3931)" fill="#FADFCB"/>
<ellipse cx="159.314" cy="81.7953" rx="84.7934" ry="72.0363" transform="rotate(4.9232 159.314 81.7953)" fill="#C5824D"/>
<path d="M155.39 45.553C164.499 46.3378 174.097 54.3162 181.308 64.7672C189.726 56.5493 200.137 51.1738 209.315 51.9643C227.925 53.5676 241.518 72.2203 239.674 93.6258C237.83 115.031 218.047 126.978 197.328 127.257C188.767 127.373 182.099 127.17 176.94 126.661C170.612 126.844 161.597 125.72 148.713 123.07C129.551 117.858 116.51 102.815 118.354 81.4092C120.198 60.0035 136.779 43.9499 155.39 45.553Z" fill="#FADFCB"/>
<ellipse cx="185.723" cy="105.392" rx="23.8284" ry="17.9753" transform="rotate(4.9232 185.723 105.392)" fill="#757376"/>
<ellipse cx="190.153" cy="95.6946" rx="13.118" ry="7.16308" transform="rotate(4.9232 190.153 95.6946)" fill="#1F1F1F"/>
<ellipse cx="152.569" cy="77.8676" rx="6.08565" ry="6.35217" transform="rotate(4.9232 152.569 77.8676)" fill="#262626"/>
<ellipse cx="217.504" cy="82.9269" rx="6.08565" ry="6.35217" transform="rotate(4.9232 217.504 82.9269)" fill="#262626"/>
<path d="M204.851 106.114C204.68 108.1 204.093 110.031 203.124 111.797C202.155 113.562 200.823 115.127 199.204 116.403C197.585 117.679 195.71 118.64 193.687 119.231C191.663 119.823 189.531 120.034 187.413 119.851C185.294 119.668 183.229 119.096 181.337 118.168C179.445 117.239 177.762 115.971 176.384 114.438C175.007 112.904 173.962 111.134 173.309 109.229C172.657 107.323 172.409 105.32 172.58 103.334L188.716 104.724L204.851 106.114Z" fill="#861D20"/>
<mask id="mask0_1046_304" style="mask-type:alpha" maskUnits="userSpaceOnUse" x="173" y="104" width="33" height="17">
<path d="M205.569 106.93C205.396 108.946 204.806 110.906 203.833 112.699C202.86 114.491 201.523 116.081 199.899 117.377C198.275 118.673 196.395 119.65 194.367 120.253C192.339 120.855 190.202 121.071 188.079 120.888C185.955 120.705 183.887 120.127 181.992 119.187C180.097 118.246 178.412 116.962 177.033 115.407C175.654 113.853 174.609 112.058 173.957 110.125C173.305 108.193 173.059 106.161 173.232 104.145L189.401 105.538L205.569 106.93Z" fill="#6C3436"/>
</mask>
<g mask="url(#mask0_1046_304)">
<path d="M169.379 119.167C169.532 117.396 170.17 115.684 171.257 114.129C172.344 112.574 173.859 111.207 175.714 110.105C177.57 109.004 179.731 108.189 182.073 107.708C184.416 107.227 186.894 107.089 189.366 107.302C191.838 107.515 194.256 108.075 196.481 108.949C198.707 109.823 200.697 110.996 202.337 112.399C203.977 113.801 205.235 115.408 206.041 117.125C206.846 118.843 207.181 120.639 207.029 122.41L188.204 120.788L169.379 119.167Z" fill="#FB4D50"/>
</g>
<path d="M137.196 229.607C136.412 227.187 76.5 206.23 54.6921 188.106C32.7691 169.886 7.77829 148.572 12.5245 117.925C17.2708 87.2785 71.9243 88.8336 54.6916 127.204" stroke="#825028" stroke-width="12.8214" stroke-linecap="round"/>
<path d="M109.192 220.497C109.192 220.497 114.094 263.911 102.809 271.134C84.0782 283.121 41.1299 257.5 41.1299 257.5" stroke="#B9743D" stroke-width="39.1178" stroke-linecap="round"/>
<path d="M274.065 144.307C274.065 144.307 256.134 173.335 245.746 181.047C233.218 190.347 202.602 161.567 202.602 161.567" stroke="#B9743D" stroke-width="32.7167" stroke-linecap="round"/>
<path d="M191.315 244.917C211.897 242.262 206.53 161.828 195.84 158.201C189.61 156.087 145.4 130.974 120.05 150.642C96.9833 168.538 103.855 198.897 103.711 216.882C101.04 243.661 170.734 247.572 191.315 244.917Z" fill="#C5824D" stroke="#C5824D" stroke-width="34.4155" stroke-linecap="round"/>
<path d="M192.426 248.72C192.426 248.72 208.241 265.057 212.488 279.202C216.573 292.807 213.447 316.015 213.447 316.015" stroke="#C5824D" stroke-width="39.8291" stroke-linecap="round"/>
<path d="M140.763 194.65C141.012 175.674 160.84 167.316 170.723 165.509C180.309 164.347 199.377 169.967 198.96 201.743C198.439 241.463 154.522 231.003 150.182 226.363C145.288 221.132 140.452 218.37 140.763 194.65Z" fill="#FADFCB" stroke="#FADFCB" stroke-width="12.8214" stroke-linecap="round"/>
<ellipse cx="220.529" cy="321.044" rx="29.8605" ry="19.907" fill="#C5824D"/>
<ellipse cx="32.5184" cy="266.149" rx="31.0179" ry="20.8531" transform="rotate(105.921 32.5184 266.149)" fill="#B9743D"/>
<path d="M137.196 229.607C136.412 227.187 76.5 206.23 54.6921 188.106C32.7691 169.886 7.77829 148.572 12.5245 117.925C17.2708 87.2785 71.9243 88.8336 54.6916 127.204" stroke="#825028" stroke-width="12.8214" stroke-linecap="round"/>
<path d="M191.315 244.917C211.897 242.262 206.53 161.828 195.84 158.201C189.61 156.087 145.4 130.974 120.05 150.642C96.9833 168.538 103.855 198.897 103.711 216.882C101.04 243.661 170.734 247.572 191.315 244.917Z" fill="#C5824D" stroke="#C5824D" stroke-width="34.4155" stroke-linecap="round"/>
<path d="M140.763 194.65C141.012 175.674 160.84 167.316 170.723 165.509C180.309 164.347 199.377 169.967 198.96 201.743C198.439 241.463 154.522 231.003 150.182 226.363C145.288 221.132 140.452 218.37 140.763 194.65Z" fill="#FADFCB" stroke="#FADFCB" stroke-width="12.8214" stroke-linecap="round"/>
<path d="M111.2 155.802C111.2 155.802 77.0719 152.509 63.47 155.365C47.0663 158.81 41.8796 194.179 41.8796 194.179" stroke="#E28C48" stroke-width="32.7167" stroke-linecap="round"/>
</svg>
