<svg width="759" height="552" viewBox="0 0 759 552" fill="none" xmlns="http://www.w3.org/2000/svg">
<path d="M733.336 247.669C804.725 320.27 705.573 392.686 695.658 390.669C721.437 443.099 684.324 447.227 665.912 455.199C661.285 491.477 636.166 559.71 572.709 542.418C509.252 525.126 490.743 502.612 489.421 493.516C475.54 513.011 434.54 552 381.587 552C328.635 552 279.38 504.944 261.372 481.416C254.101 502.834 220.522 540.484 144.373 519.733C68.2243 498.983 58.4411 455.964 63.0681 437.048C-51.1543 369.983 15.4754 300.222 63.0681 273.725C5.37789 172.106 93.2338 135.908 144.373 130.51C138.424 98.8962 149.132 29.5073 239.559 4.86628C329.986 -19.7747 380.355 55.1449 394.236 95.6849C629.028 31.7048 616.336 141.992 580.642 205.133C607.743 195.111 676.224 189.588 733.336 247.669Z" fill="#285125"/>
</svg>
