<svg width="286" height="189" viewBox="0 0 286 189" fill="none" xmlns="http://www.w3.org/2000/svg">
<g filter="url(#filter0_d_1162_2)">
<rect x="22.0005" y="37" width="256" height="115" rx="35" fill="#FFF1E0"/>
</g>
<path d="M117.454 23.3783L100.952 28.1517L107.024 39.0526C108.32 41.4035 109.611 43.1618 109.855 45.7301C110.088 48.1761 110.324 60.0763 110.019 63.7492C109.619 68.5699 111.015 79.4644 102.843 102.085C94.671 124.706 53.6836 134.804 34.2114 137.025L27.947 137.872L23.7853 149.392L28.7634 152.106C57.0303 170.181 118.303 175.403 140.839 126.216C168.775 65.2459 119.714 39.4595 119.629 37.149C119.541 34.7543 117.761 26.3232 117.454 23.3783Z" fill="#FFF1E0"/>
<path d="M117.454 23.3783L100.952 28.1517L107.024 39.0526C108.32 41.4035 109.611 43.1618 109.855 45.7301C110.088 48.1761 110.324 60.0763 110.019 63.7492C109.619 68.5699 111.015 79.4644 102.843 102.085C94.671 124.706 53.6836 134.804 34.2114 137.025L27.947 137.872L23.7853 149.392L28.7634 152.106C57.0303 170.181 118.303 175.403 140.839 126.216C168.775 65.2459 119.714 39.4595 119.629 37.149C119.541 34.7543 117.761 26.3232 117.454 23.3783Z" fill="white" fill-opacity="0.4"/>
<path d="M117.454 23.3783L100.952 28.1517L107.024 39.0526C108.32 41.4035 109.611 43.1618 109.855 45.7301C110.088 48.1761 110.324 60.0763 110.019 63.7492C109.619 68.5699 111.015 79.4644 102.843 102.085C94.671 124.706 53.6836 134.804 34.2114 137.025L27.947 137.872L23.7853 149.392L28.7634 152.106C57.0303 170.181 118.303 175.403 140.839 126.216C168.775 65.2459 119.714 39.4595 119.629 37.149C119.541 34.7543 117.761 26.3232 117.454 23.3783Z" fill="#FFF1E0"/>
<path d="M117.41 21L99.6187 26.568L102.303 31.704L118.209 26.5672L117.41 21Z" fill="#FFF1E0"/>
<path d="M22.3188 136.055L17.0005 148.776L21.2571 148.841L25.9201 137.415L22.3188 136.055Z" fill="#FFF1E0"/>
<path d="M117.454 23.3783L100.952 28.1517L107.024 39.0526C108.32 41.4035 109.611 43.1618 109.855 45.7301C110.088 48.1761 110.324 60.0763 110.019 63.7492C109.619 68.5699 111.015 79.4644 102.843 102.085C94.671 124.706 53.6836 134.804 34.2114 137.025L27.947 137.872L23.7853 149.392L28.7634 152.106C57.0303 170.181 118.303 175.403 140.839 126.216C168.775 65.2459 119.714 39.4595 119.629 37.149C119.541 34.7543 117.761 26.3232 117.454 23.3783Z" stroke="#FFF1E0" stroke-width="16.8175" stroke-linecap="round"/>
<path d="M117.41 21L99.6187 26.568L102.303 31.704L118.209 26.5672L117.41 21Z" stroke="#FFF1E0" stroke-width="16.8175" stroke-linecap="round"/>
<path d="M22.3188 136.055L17.0005 148.776L21.2571 148.841L25.9201 137.415L22.3188 136.055Z" stroke="#FFF1E0" stroke-width="16.8175" stroke-linecap="round"/>
<g filter="url(#filter1_d_1162_2)">
<g filter="url(#filter2_g_1162_2)">
<path d="M115.415 26.5936L99.7134 31.1742L105.491 41.6347C106.724 43.8906 107.952 45.5778 108.185 48.0424C108.406 50.3895 108.631 61.8089 108.34 65.3334C107.959 69.9593 109.288 80.4136 101.512 102.12C93.7365 123.827 54.7365 133.517 36.2085 135.649L30.2478 136.462L26.2879 147.516L31.0246 150.12C57.9209 167.465 116.223 172.476 137.666 125.277C164.247 66.7696 117.565 42.0251 117.484 39.8079C117.4 37.51 115.707 29.4195 115.415 26.5936Z" fill="url(#paint0_linear_1162_2)"/>
<path d="M115.415 26.5936L99.7134 31.1742L105.491 41.6347C106.724 43.8906 107.952 45.5778 108.185 48.0424C108.406 50.3895 108.631 61.8089 108.34 65.3334C107.959 69.9593 109.288 80.4136 101.512 102.12C93.7365 123.827 54.7365 133.517 36.2085 135.649L30.2478 136.462L26.2879 147.516L31.0246 150.12C57.9209 167.465 116.223 172.476 137.666 125.277C164.247 66.7696 117.565 42.0251 117.484 39.8079C117.4 37.51 115.707 29.4195 115.415 26.5936Z" fill="url(#paint1_linear_1162_2)" fill-opacity="0.4"/>
<path d="M115.415 26.5936L99.7134 31.1742L105.491 41.6347C106.724 43.8906 107.952 45.5778 108.185 48.0424C108.406 50.3895 108.631 61.8089 108.34 65.3334C107.959 69.9593 109.288 80.4136 101.512 102.12C93.7365 123.827 54.7365 133.517 36.2085 135.649L30.2478 136.462L26.2879 147.516L31.0246 150.12C57.9209 167.465 116.223 172.476 137.666 125.277C164.247 66.7696 117.565 42.0251 117.484 39.8079C117.4 37.51 115.707 29.4195 115.415 26.5936Z" fill="url(#paint2_linear_1162_2)"/>
<path d="M115.415 26.5936L99.7134 31.1742L105.491 41.6347C106.724 43.8906 107.952 45.5778 108.185 48.0424C108.406 50.3895 108.631 61.8089 108.34 65.3334C107.959 69.9593 109.288 80.4136 101.512 102.12C93.7365 123.827 54.7365 133.517 36.2085 135.649L30.2478 136.462L26.2879 147.516L31.0246 150.12C57.9209 167.465 116.223 172.476 137.666 125.277C164.247 66.7696 117.565 42.0251 117.484 39.8079C117.4 37.51 115.707 29.4195 115.415 26.5936Z" stroke="#FF9E01" stroke-width="2.56194" stroke-linecap="round"/>
</g>
<path d="M115.373 24.3114L98.4443 29.6544L100.998 34.583L116.133 29.6537L115.373 24.3114Z" fill="#262626" stroke="#262626" stroke-width="2.13495" stroke-linecap="round"/>
<path d="M24.8923 134.718L19.8319 146.925L23.8821 146.988L28.319 136.023L24.8923 134.718Z" fill="#262626" stroke="#262626" stroke-width="2.13495" stroke-linecap="round"/>
</g>
<path d="M84.6777 51.3539C85.1409 50.5031 86.4222 50.7422 86.5475 51.7028L86.9011 54.4145C86.9571 54.8441 87.2834 55.1888 87.7093 55.2682L90.3975 55.7699C91.3498 55.9476 91.5184 57.24 90.6435 57.656L88.1738 58.8303C87.7825 59.0163 87.5556 59.4331 87.6116 59.8627L87.9652 62.5744C88.0905 63.535 86.9134 64.0947 86.2474 63.3912L84.3674 61.4052C84.0696 61.0906 83.603 61.0036 83.2118 61.1896L80.7421 62.3639C79.8672 62.7798 78.9712 61.8333 79.4345 60.9825L80.7423 58.5808C80.9495 58.2004 80.8881 57.7298 80.5903 57.4151L78.7103 55.4292C78.0443 54.7257 78.6676 53.581 79.6199 53.7587L82.3082 54.2603C82.7341 54.3398 83.1627 54.136 83.3699 53.7555L84.6777 51.3539Z" fill="#FFD401"/>
<path d="M87.6873 81.8848C87.8758 80.9346 89.1701 80.7807 89.5761 81.6603L90.2158 83.0461C90.3974 83.4395 90.8116 83.6712 91.2418 83.62L92.7576 83.4399C93.7195 83.3255 94.2658 84.5089 93.5548 85.1669L92.4344 86.2036C92.1164 86.4978 92.0241 86.9633 92.2056 87.3567L92.8454 88.7426C93.2514 89.6221 92.2947 90.5073 91.4492 90.0344L90.1171 89.2892C89.739 89.0777 89.2677 89.1337 88.9497 89.428L87.8294 90.4647C87.1183 91.1226 85.9808 90.4863 86.1693 89.5361L86.4663 88.0389C86.5507 87.6139 86.3517 87.183 85.9737 86.9715L84.6415 86.2263C83.796 85.7534 84.0497 84.4749 85.0116 84.3606L86.5274 84.1804C86.9576 84.1293 87.3059 83.807 87.3902 83.382L87.6873 81.8848Z" fill="#FFD401"/>
<path d="M58.0101 74.1609C58.1986 73.2107 59.4929 73.0569 59.8989 73.9364L61.2509 76.8653C61.4325 77.2587 61.8467 77.4904 62.2769 77.4392L65.4803 77.0585C66.4422 76.9441 66.9885 78.1275 66.2775 78.7855L63.9097 80.9764C63.5917 81.2706 63.4994 81.7362 63.6809 82.1295L65.033 85.0584C65.439 85.938 64.4823 86.8232 63.6368 86.3503L60.8214 84.7754C60.4433 84.5639 59.9721 84.6199 59.6541 84.9142L57.2863 87.1051C56.5753 87.763 55.4378 87.1267 55.6263 86.1765L56.254 83.0123C56.3383 82.5873 56.1394 82.1564 55.7613 81.9449L52.9459 80.3701C52.1005 79.8972 52.3542 78.6187 53.3161 78.5043L56.5195 78.1236C56.9497 78.0724 57.298 77.7501 57.3823 77.3252L58.0101 74.1609Z" fill="#FFD401"/>
<defs>
<filter id="filter0_d_1162_2" x="22.0005" y="37" width="264" height="124" filterUnits="userSpaceOnUse" color-interpolation-filters="sRGB">
<feFlood flood-opacity="0" result="BackgroundImageFix"/>
<feColorMatrix in="SourceAlpha" type="matrix" values="0 0 0 0 0 0 0 0 0 0 0 0 0 0 0 0 0 0 127 0" result="hardAlpha"/>
<feOffset dx="8" dy="9"/>
<feComposite in2="hardAlpha" operator="out"/>
<feColorMatrix type="matrix" values="0 0 0 0 0 0 0 0 0 0 0 0 0 0 0 0 0 0 0.25 0"/>
<feBlend mode="normal" in2="BackgroundImageFix" result="effect1_dropShadow_1162_2"/>
<feBlend mode="normal" in="SourceGraphic" in2="effect1_dropShadow_1162_2" result="shape"/>
</filter>
<filter id="filter1_d_1162_2" x="18.2437" y="22.9145" width="134.886" height="143.86" filterUnits="userSpaceOnUse" color-interpolation-filters="sRGB">
<feFlood flood-opacity="0" result="BackgroundImageFix"/>
<feColorMatrix in="SourceAlpha" type="matrix" values="0 0 0 0 0 0 0 0 0 0 0 0 0 0 0 0 0 0 127 0" result="hardAlpha"/>
<feOffset dx="6" dy="3"/>
<feComposite in2="hardAlpha" operator="out"/>
<feColorMatrix type="matrix" values="0 0 0 0 0 0 0 0 0 0 0 0 0 0 0 0 0 0 0.09 0"/>
<feBlend mode="normal" in2="BackgroundImageFix" result="effect1_dropShadow_1162_2"/>
<feBlend mode="normal" in="SourceGraphic" in2="effect1_dropShadow_1162_2" result="shape"/>
</filter>
<filter id="filter2_g_1162_2" x="-0.00933647" y="0.210863" width="171.861" height="188.286" filterUnits="userSpaceOnUse" color-interpolation-filters="sRGB">
<feFlood flood-opacity="0" result="BackgroundImageFix"/>
<feBlend mode="normal" in="SourceGraphic" in2="BackgroundImageFix" result="shape"/>
<feTurbulence type="fractalNoise" baseFrequency="2.6021952629089355 2.6021952629089355" numOctaves="3" seed="3756" result="displacementX" />
<feTurbulence type="fractalNoise" baseFrequency="2.6021952629089355 2.6021952629089355" numOctaves="3" seed="3757" result="displacementY" />
<feColorMatrix in="displacementX" type="matrix" values="0 0 0 1 0  0 0 0 0 0  0 0 0 0 0  0 0 0 0 1" result="displacementXRed" />
<feColorMatrix in="displacementY" type="matrix" values="0 0 0 0 0  0 0 0 1 0  0 0 0 0 0  0 0 0 0 1" />
<feComposite in="displacementXRed" operator="arithmetic" k1="0" k2="1" k3="1" k4="0"/>
<feDisplacementMap in="shape" scale="49.445430755615234" xChannelSelector="R" yChannelSelector="G" width="100%" height="100%" />
<feColorMatrix type="matrix" values="0 0 0 0 0  0 0 0 0 0  0 0 0 0 0  0 0 0 1 0" />
<feComponentTransfer result="sourceDisplacedAlpha">
<feFuncA type="gamma" exponent="0.2" />
</feComponentTransfer>
<feColorMatrix in="shape" type="matrix" values="0 0 0 0 0  0 0 0 0 0  0 0 0 0 0  0 0 0 1 0" />
<feComponentTransfer result="inputSourceAlpha">
<feFuncA type="gamma" exponent="0.2" />
</feComponentTransfer>
<feComposite in="sourceDisplacedAlpha" operator="arithmetic" k1="1" k2="0" k3="0" k4="0" result="displacementAlphasMultiplied"/>
<feComposite in="displacementAlphasMultiplied"  operator="arithmetic" k1="0" k2="0" k3="-0.5" k4="0.5" result="centeringAdjustment"/>
<feComposite in="displacementX" in2="displacementAlphasMultiplied" operator="arithmetic" k1="1" k2="0" k3="0" k4="0" />
<feComposite in="centeringAdjustment" operator="arithmetic" k1="0" k2="1" k3="1" k4="0" />
<feColorMatrix  type="matrix" values="0 0 0 1 0  0 0 0 0 0  0 0 0 0 0  0 0 0 0 1" result="displacementXFinal" />
<feComposite in="displacementY" in2="displacementAlphasMultiplied" operator="arithmetic" k1="1" k2="0" k3="0" k4="0" />
<feComposite in="centeringAdjustment" operator="arithmetic" k1="0" k2="1" k3="1" k4="0" />
<feColorMatrix  type="matrix" values="0 0 0 0 0  0 0 0 1 0  0 0 0 0 0  0 0 0 0 1" result="displacementYFinal" />
<feComposite in="displacementXFinal" in2="displacementYFinal" operator="arithmetic" k1="0" k2="1" k3="1" k4="0" />
<feComposite in2="displacementAlphasMultiplied" operator="in" result="displacementMap" />
<feFlood flood-color="rgb(127, 127, 127)" flood-opacity="1"/>
<feComposite in2="displacementAlphasMultiplied" operator="out" />
<feComposite in2="displacementMap" operator="over" result="displacementMapWithBg"/>
<feDisplacementMap in="shape" scale="49.445430755615234" xChannelSelector="R" yChannelSelector="G" width="100%" height="100%" result="displacedImage" />
<feColorMatrix in="shape" type="matrix" values="1 0 0 0 0  0 1 0 0 0  0 0 1 0 0  0 0 0 127 0" result="imageOpaque" />
<feDisplacementMap in="imageOpaque" in2="displacementMapWithBg" scale="49.445430755615234" xChannelSelector="R" yChannelSelector="G" width="100%" height="100%" result="displacedImageOpaque" />
<feColorMatrix in="displacedImage" type="matrix" values="0 0 0 1 0  0 0 0 0 0  0 0 0 0 0  0 0 0 127 0" result="displacedImageRed" />
<feColorMatrix in="shape" type="matrix" values="0 0 0 1 0  0 0 0 0 0  0 0 0 0 0  0 0 0 127 0" />
<feComposite in="displacedImageRed"  operator="atop" result="transparencyRedMap"/>
<feColorMatrix in="transparencyRedMap" type="matrix" values="0 0 0 0 0  0 0 0 0 0  0 0 0 0 0  1 0 0 0 0" result="transparencyAlphaMap" />
<feComposite in="displacedImageOpaque" in2="imageOpaque" operator="over" />
<feComposite in2="transparencyAlphaMap" operator="in" result="effect1_texture_1162_2"/>
</filter>
<linearGradient id="paint0_linear_1162_2" x1="73.7458" y1="144.106" x2="31.209" y2="146.787" gradientUnits="userSpaceOnUse">
<stop offset="0.509104" stop-color="#FFD401"/>
<stop offset="0.961136" stop-color="#59CD42"/>
</linearGradient>
<linearGradient id="paint1_linear_1162_2" x1="123.247" y1="71.1269" x2="112.118" y2="40.1534" gradientUnits="userSpaceOnUse">
<stop stop-color="#FFD401"/>
<stop offset="1" stop-color="#59CD42"/>
</linearGradient>
<linearGradient id="paint2_linear_1162_2" x1="92.9689" y1="100.647" x2="134.195" y2="120.405" gradientUnits="userSpaceOnUse">
<stop offset="0.561415" stop-color="#FF9E01" stop-opacity="0"/>
<stop offset="1" stop-color="#FF9E01"/>
</linearGradient>
</defs>
</svg>
