<svg width="272" height="336" viewBox="0 0 272 336" fill="none" xmlns="http://www.w3.org/2000/svg">
<ellipse cx="75.1063" cy="59.4667" rx="30.3444" ry="28.6115" transform="rotate(11.3799 75.1063 59.4667)" fill="#C5824D"/>
<ellipse cx="25.8574" cy="19.7921" rx="25.8574" ry="19.7921" transform="matrix(0.882879 0.469601 -0.469902 0.882718 65.8672 33.1248)" fill="#FADFCB"/>
<ellipse cx="30.3444" cy="28.6115" rx="30.3444" ry="28.6115" transform="matrix(-0.980341 -0.197313 -0.197313 0.980341 266.251 71.1028)" fill="#C5824D"/>
<ellipse cx="25.8574" cy="19.7921" rx="25.8574" ry="19.7921" transform="matrix(-0.995807 0.0914778 0.0918178 0.995776 249.567 72.4478)" fill="#FADFCB"/>
<ellipse cx="148.2" cy="90.8247" rx="82.7214" ry="70.2761" transform="rotate(11.3799 148.2 90.8247)" fill="#C5824D"/>
<path d="M148.373 55.2613C157.117 57.0212 165.545 65.8085 171.39 76.7308C180.452 69.688 191.133 65.6199 199.943 67.3931C217.808 70.9888 228.938 90.5608 224.802 111.109C220.666 131.656 200.178 141.067 180.063 139.065C171.75 138.238 165.308 137.308 160.363 136.249C154.208 135.732 145.594 133.655 133.396 129.672C115.393 122.518 104.401 106.504 108.537 85.9558C112.673 65.4081 130.508 51.6657 148.373 55.2613Z" fill="#FADFCB"/>
<ellipse cx="171.219" cy="116.597" rx="23.2461" ry="17.5361" transform="rotate(11.3799 171.219 116.597)" fill="#757376"/>
<ellipse cx="176.576" cy="107.682" rx="12.7974" ry="6.98805" transform="rotate(11.3799 176.576 107.682)" fill="#1F1F1F"/>
<ellipse cx="142.098" cy="86.2781" rx="5.93695" ry="6.19695" transform="rotate(11.3799 142.098 86.2781)" fill="#262626"/>
<ellipse cx="204.491" cy="98.3059" rx="5.93695" ry="6.19695" transform="rotate(11.3799 204.491 98.3059)" fill="#262626"/>
<path d="M189.682 119.394C189.298 121.301 188.517 123.109 187.384 124.714C186.251 126.319 184.788 127.69 183.078 128.749C181.369 129.808 179.446 130.534 177.42 130.886C175.394 131.237 173.304 131.207 171.27 130.798C169.236 130.388 167.297 129.607 165.565 128.499C163.832 127.392 162.34 125.978 161.173 124.34C160.006 122.702 159.188 120.872 158.764 118.954C158.34 117.035 158.32 115.066 158.703 113.159L174.192 116.277L189.682 119.394Z" fill="#861D20"/>
<mask id="mask0_1046_366" style="mask-type:alpha" maskUnits="userSpaceOnUse" x="158" y="114" width="33" height="19">
<path d="M190.288 120.265C189.899 122.2 189.112 124.036 187.972 125.667C186.832 127.297 185.362 128.692 183.645 129.77C181.929 130.848 179.999 131.589 177.967 131.951C175.935 132.312 173.84 132.287 171.802 131.877C169.764 131.467 167.822 130.679 166.088 129.56C164.354 128.44 162.862 127.01 161.696 125.352C160.53 123.694 159.714 121.839 159.294 119.894C158.873 117.95 158.858 115.953 159.247 114.018L174.768 117.141L190.288 120.265Z" fill="#6C3436"/>
</mask>
<g mask="url(#mask0_1046_366)">
<path d="M153.863 128.157C154.205 126.457 155.012 124.867 156.236 123.479C157.46 122.091 159.078 120.932 160.998 120.068C162.918 119.203 165.102 118.651 167.426 118.441C169.749 118.232 172.166 118.37 174.539 118.848C176.912 119.325 179.195 120.133 181.256 121.225C183.318 122.317 185.118 123.671 186.554 125.211C187.99 126.751 189.034 128.446 189.626 130.2C190.218 131.953 190.346 133.731 190.004 135.431L171.934 131.794L153.863 128.157Z" fill="#FB4D50"/>
</g>
<path d="M88.4893 230.996C88.4893 230.996 112.826 257.666 110.708 270.167C108.67 282.191 95.4017 301.931 95.4017 301.931" stroke="#C5824D" stroke-width="39.8291" stroke-linecap="round"/>
<path d="M98.1431 240.154C97.9978 237.63 47.9777 201.741 32.2636 178.627C16.4666 155.391 -1.41161 128.383 10.2253 100.292C21.8622 72.2011 71.6641 88.1245 46.7301 120.313" stroke="#825028" stroke-width="12.5082" stroke-linecap="round"/>
<path d="M167.215 244.163C167.215 244.163 191.324 256.226 196.109 268.391C204.051 288.58 187.758 304.386 187.758 304.386" stroke="#B9743D" stroke-width="39.8291" stroke-linecap="round"/>
<path d="M225.969 233.136C225.969 233.136 193.432 205.597 188.685 193.902C182.662 179.062 182.694 171.939 182.694 171.939" stroke="#B9743D" stroke-width="32.7167" stroke-linecap="round"/>
<path d="M161.331 252.462C181.574 252.146 185.195 173.587 175.23 168.898C169.423 166.165 129.322 136.971 102.591 153.256C78.2674 168.074 81.5981 198.257 79.4855 215.675C73.9587 241.341 141.089 252.778 161.331 252.462Z" fill="#C5824D" stroke="#C5824D" stroke-width="33.5745" stroke-linecap="round"/>
<path d="M117.841 198.189C120.164 179.821 140.302 173.894 150.08 173.226C159.5 173.152 177.368 180.692 173.478 211.449C168.616 249.896 127.191 234.938 123.493 229.965C119.323 224.356 114.938 221.149 117.841 198.189Z" fill="#FADFCB" stroke="#FADFCB" stroke-width="12.5082" stroke-linecap="round"/>
<path d="M88.242 155.45C88.242 155.45 85.4063 168.097 83.1792 181.472C79.4457 203.892 88.0762 226.725 88.0762 226.725" stroke="#E28C48" stroke-width="32.7167" stroke-linecap="round"/>
<ellipse cx="101.092" cy="306.792" rx="29.1308" ry="19.4206" transform="rotate(-2.0998 101.092 306.792)" fill="#C5824D"/>
<ellipse cx="193.918" cy="309.063" rx="30.26" ry="20.3435" transform="rotate(13.2042 193.918 309.063)" fill="#B9743D"/>
</svg>
