<svg width="167" height="173" viewBox="0 0 167 173" fill="none" xmlns="http://www.w3.org/2000/svg">
<path d="M109.669 129.161C110.903 127.516 122.864 125.733 128.691 125.048C133.967 124.381 143.224 123.542 150.541 123.706M150.541 123.706C154.514 123.795 157.914 124.18 159.795 125.048C165.142 127.516 165.965 133.788 165.708 136.616C161.938 142.442 152.906 155.432 146.942 160.779C139.488 167.463 122.522 166.691 118.923 166.177C115.324 165.663 108.899 170.804 107.081 170.804C105.249 170.804 103.538 170.804 101.7 170.804C96.6587 170.804 111.211 165.406 112.24 163.35C113.525 160.779 84.9913 158.723 78.8219 157.437C72.6525 156.152 74.7089 154.61 76.2513 154.095C77.7936 153.581 97.5872 155.638 101.7 156.409C104.99 157.026 125.521 157.352 135.375 157.437L150.541 142.528C132.547 151.782 100.672 148.697 95.7878 147.155C90.9036 145.613 88.333 138.158 89.1042 130.446C89.7212 124.277 79.0789 115.708 73.6807 112.195C73.0809 119.735 72.0355 135.176 72.6525 136.616C73.4236 138.415 75.7372 137.901 84.9913 140.985C92.3946 143.453 90.3038 145.27 88.333 145.87C85.4197 145.527 77.5366 145.304 69.3107 147.155C59.0283 149.468 49.2012 135.873 41.2913 134.816C35.2308 134.007 36.6642 131.56 37.9495 131.217L56.9719 134.816L59.7995 110.91C55.9436 99.5134 46.8438 75.6926 41.2913 71.5797C35.7388 67.4667 32.9797 58.384 32.2942 54.3567C23.7256 48.1016 5.76579 32.8666 2.47544 21.9673C-0.814911 11.0681 13.786 7.14363 21.4978 6.54382H24.8394C25.782 5.82966 29.2609 3.9743 35.6359 2.2661C42.011 0.557914 48.5745 7.49087 51.0594 11.1709C69.6948 22.5671 108.123 46.028 112.754 48.7014C117.384 51.3749 135.59 76.5495 144.115 88.8026C152.855 88.8026 160.697 99.342 161.936 103.969C162.928 107.671 154.753 118.669 150.541 123.706Z" stroke="white" stroke-width="2.51104"/>
<g filter="url(#filter0_d_1046_424)">
<path d="M2.47543 21.9673C-0.814911 11.0681 13.786 7.14363 21.4978 6.54382H24.8394C25.782 5.82966 29.2608 3.9743 35.6359 2.2661C42.011 0.557914 48.5745 7.49087 51.0594 11.1709C69.6948 22.5671 108.123 46.028 112.754 48.7014C117.384 51.3749 135.59 76.5495 144.115 88.8026C152.855 88.8026 160.697 99.342 161.936 103.969C162.928 107.671 154.753 118.669 150.541 123.706C154.514 123.795 157.914 124.18 159.795 125.048C165.142 127.516 165.965 133.788 165.708 136.616C161.938 142.442 152.906 155.432 146.942 160.779C139.488 167.463 122.522 166.691 118.923 166.177C115.324 165.663 108.899 170.804 107.081 170.804H101.7C96.6587 170.804 111.211 165.406 112.24 163.35C113.525 160.779 84.9913 158.723 78.8219 157.437C72.6525 156.152 74.7089 154.61 76.2513 154.095C77.7936 153.581 97.5872 155.638 101.7 156.409C104.99 157.026 125.521 157.352 135.375 157.437L150.541 142.528C132.547 151.782 100.672 148.697 95.7878 147.155C90.9036 145.613 88.333 138.158 89.1042 130.446C89.7212 124.277 79.0789 115.708 73.6807 112.195C73.0809 119.735 72.0355 135.176 72.6525 136.616C73.4237 138.415 75.7372 137.901 84.9913 140.985C92.3946 143.453 90.3038 145.27 88.333 145.87C85.4197 145.527 77.5366 145.304 69.3107 147.155C59.0284 149.468 49.2012 135.872 41.2913 134.816C35.2308 134.007 36.6642 131.56 37.9495 131.217L56.9719 134.816L59.7995 110.91C55.9436 99.5134 46.8438 75.6926 41.2913 71.5797C35.7388 67.4667 32.9797 58.384 32.2942 54.3567C23.7256 48.1016 5.76579 32.8666 2.47543 21.9673Z" fill="#FF9E01"/>
<path d="M2.47543 21.9673C-0.814911 11.0681 13.786 7.14363 21.4978 6.54382H24.8394C25.782 5.82966 29.2608 3.9743 35.6359 2.2661C42.011 0.557914 48.5745 7.49087 51.0594 11.1709C69.6948 22.5671 108.123 46.028 112.754 48.7014C117.384 51.3749 135.59 76.5495 144.115 88.8026C152.855 88.8026 160.697 99.342 161.936 103.969C162.928 107.671 154.753 118.669 150.541 123.706C154.514 123.795 157.914 124.18 159.795 125.048C165.142 127.516 165.965 133.788 165.708 136.616C161.938 142.442 152.906 155.432 146.942 160.779C139.488 167.463 122.522 166.691 118.923 166.177C115.324 165.663 108.899 170.804 107.081 170.804H101.7C96.6587 170.804 111.211 165.406 112.24 163.35C113.525 160.779 84.9913 158.723 78.8219 157.437C72.6525 156.152 74.7089 154.61 76.2513 154.095C77.7936 153.581 97.5872 155.638 101.7 156.409C104.99 157.026 125.521 157.352 135.375 157.437L150.541 142.528C132.547 151.782 100.672 148.697 95.7878 147.155C90.9036 145.613 88.333 138.158 89.1042 130.446C89.7212 124.277 79.0789 115.708 73.6807 112.195C73.0809 119.735 72.0355 135.176 72.6525 136.616C73.4237 138.415 75.7372 137.901 84.9913 140.985C92.3946 143.453 90.3038 145.27 88.333 145.87C85.4197 145.527 77.5366 145.304 69.3107 147.155C59.0284 149.468 49.2012 135.872 41.2913 134.816C35.2308 134.007 36.6642 131.56 37.9495 131.217L56.9719 134.816L59.7995 110.91C55.9436 99.5134 46.8438 75.6926 41.2913 71.5797C35.7388 67.4667 32.9797 58.384 32.2942 54.3567C23.7256 48.1016 5.76579 32.8666 2.47543 21.9673Z" fill="url(#paint0_linear_1046_424)" fill-opacity="0.43"/>
<path d="M38.8603 24.6C34.0069 16.1938 26.2912 17.1167 22.8409 19.0884C19.3905 21.06 20.1298 23.278 20.1298 23.278C20.1298 26.9748 22.1507 33.1361 30.2344 33.1361C38.3181 33.1361 39.3532 27.4454 38.8603 24.6Z" fill="black"/>
<path d="M32.6008 18.5369C33.2642 18.5369 34.6089 19.5035 35.4493 20.1898C34.3106 24.3121 30.6601 24.5585 29.7086 23.5531C28.7445 22.5345 31.6368 18.5369 32.6008 18.5369Z" fill="white"/>
<ellipse cx="1.30372" cy="0.931226" rx="1.30372" ry="0.931226" transform="matrix(-0.754164 -0.656687 -0.656687 0.754164 8.25293 20.25)" fill="black"/>
<path d="M53.1943 66.2935C53.7294 65.3742 55.9274 65.9104 56.9595 66.2935C55.5015 71.6903 64.2685 91.3321 68.8342 100.478C69.7997 102.128 71.3481 105.53 69.8182 105.936C67.9058 106.445 60.6321 89.4827 59.2766 86.9768C58.0335 84.6786 52.5254 67.4425 53.1943 66.2935Z" fill="white"/>
<path d="M146.85 122.879C138.187 119.772 117.634 112.666 104.719 120.123C91.8044 127.579 89.2319 131.629 89.3632 132.722" stroke="#FF5900" stroke-opacity="0.43" stroke-width="0.18157"/>
</g>
<defs>
<filter id="filter0_d_1046_424" x="2" y="2" width="164.377" height="168.804" filterUnits="userSpaceOnUse" color-interpolation-filters="sRGB">
<feFlood flood-opacity="0" result="BackgroundImageFix"/>
<feColorMatrix in="SourceAlpha" type="matrix" values="0 0 0 0 0 0 0 0 0 0 0 0 0 0 0 0 0 0 127 0" result="hardAlpha"/>
<feOffset dx="0.627761"/>
<feComposite in2="hardAlpha" operator="out"/>
<feColorMatrix type="matrix" values="0 0 0 0 0 0 0 0 0 0 0 0 0 0 0 0 0 0 0.25 0"/>
<feBlend mode="normal" in2="BackgroundImageFix" result="effect1_dropShadow_1046_424"/>
<feBlend mode="normal" in="SourceGraphic" in2="effect1_dropShadow_1046_424" result="shape"/>
</filter>
<linearGradient id="paint0_linear_1046_424" x1="48.02" y1="98.8607" x2="100.388" y2="61.8489" gradientUnits="userSpaceOnUse">
<stop stop-color="#FF9E01"/>
<stop offset="1" stop-color="#FFD401"/>
</linearGradient>
</defs>
</svg>
