<svg width="288" height="347" viewBox="0 0 288 347" fill="none" xmlns="http://www.w3.org/2000/svg">
<ellipse cx="81.2501" cy="58.4725" rx="31.1044" ry="29.3281" transform="rotate(4.9232 81.2501 58.4725)" fill="#C5824D"/>
<ellipse cx="26.505" cy="20.2878" rx="26.505" ry="20.2878" transform="matrix(0.930086 0.367341 -0.367658 0.929961 68.8047 32.707)" fill="#FADFCB"/>
<ellipse cx="31.1044" cy="29.3281" rx="31.1044" ry="29.3281" transform="matrix(-0.996311 -0.0858203 -0.0858203 0.996311 277.273 48.2915)" fill="#C5824D"/>
<ellipse cx="26.505" cy="20.2878" rx="26.505" ry="20.2878" transform="matrix(-0.979204 0.202878 0.203212 0.979135 260.436 51.5842)" fill="#FADFCB"/>
<ellipse cx="159.314" cy="81.9867" rx="84.7934" ry="72.0363" transform="rotate(4.9232 159.314 81.9867)" fill="#C5824D"/>
<path d="M155.39 45.7442C164.499 46.5289 174.097 54.5074 181.308 64.9583C189.726 56.7404 200.137 51.3649 209.315 52.1555C227.925 53.7588 241.518 72.4114 239.674 93.8169C237.83 115.223 218.047 127.169 197.328 127.448C188.767 127.564 182.099 127.361 176.94 126.852C170.612 127.036 161.597 125.912 148.713 123.261C129.551 118.049 116.51 103.006 118.354 81.6004C120.198 60.1946 136.779 44.1411 155.39 45.7442Z" fill="#FADFCB"/>
<ellipse cx="185.723" cy="105.584" rx="23.8284" ry="17.9753" transform="rotate(4.9232 185.723 105.584)" fill="#757376"/>
<ellipse cx="190.153" cy="95.8857" rx="13.118" ry="7.16308" transform="rotate(4.9232 190.153 95.8857)" fill="#1F1F1F"/>
<ellipse cx="152.569" cy="78.059" rx="6.08565" ry="6.35217" transform="rotate(4.9232 152.569 78.059)" fill="#262626"/>
<ellipse cx="217.504" cy="83.1181" rx="6.08565" ry="6.35217" transform="rotate(4.9232 217.504 83.1181)" fill="#262626"/>
<path d="M204.851 106.305C204.68 108.291 204.093 110.222 203.124 111.988C202.155 113.753 200.823 115.318 199.204 116.594C197.585 117.87 195.71 118.831 193.687 119.422C191.663 120.014 189.531 120.224 187.413 120.042C185.294 119.859 183.229 119.287 181.337 118.359C179.445 117.43 177.762 116.162 176.384 114.628C175.007 113.095 173.962 111.325 173.309 109.419C172.657 107.514 172.409 105.511 172.58 103.525L188.716 104.915L204.851 106.305Z" fill="#861D20"/>
<mask id="mask0_1046_336" style="mask-type:alpha" maskUnits="userSpaceOnUse" x="173" y="104" width="33" height="18">
<path d="M205.569 107.122C205.396 109.137 204.806 111.098 203.833 112.89C202.86 114.682 201.523 116.272 199.899 117.568C198.275 118.864 196.395 119.841 194.367 120.444C192.339 121.046 190.202 121.262 188.079 121.079C185.955 120.897 183.887 120.318 181.992 119.378C180.097 118.438 178.412 117.153 177.033 115.599C175.654 114.044 174.609 112.249 173.957 110.317C173.305 108.384 173.059 106.352 173.232 104.336L189.401 105.729L205.569 107.122Z" fill="#6C3436"/>
</mask>
<g mask="url(#mask0_1046_336)">
<path d="M169.379 119.358C169.532 117.587 170.17 115.875 171.257 114.32C172.344 112.766 173.859 111.398 175.714 110.297C177.57 109.195 179.731 108.38 182.073 107.899C184.416 107.418 186.894 107.28 189.366 107.493C191.838 107.706 194.256 108.266 196.481 109.14C198.707 110.015 200.697 111.187 202.337 112.59C203.977 113.993 205.235 115.599 206.041 117.317C206.846 119.034 207.181 120.83 207.029 122.601L188.204 120.98L169.379 119.358Z" fill="#FB4D50"/>
</g>
<path d="M105.175 233.003C105.175 233.003 101.459 266.96 87.6297 272.142C74.3276 277.127 38.0309 260.333 38.0309 260.333" stroke="#C5824D" stroke-width="39.8291" stroke-linecap="round"/>
<path d="M137.196 229.798C136.412 227.378 76.5 206.421 54.6921 188.297C32.7691 170.077 7.77829 148.763 12.5245 118.116C17.2708 87.4696 71.9243 89.0247 54.6916 127.395" stroke="#825028" stroke-width="12.8214" stroke-linecap="round"/>
<path d="M191.213 247.512C191.213 247.512 208.079 268.716 211.795 281.59C217.962 302.956 203.022 321.235 203.022 321.235" stroke="#B9743D" stroke-width="39.8291" stroke-linecap="round"/>
<path d="M271.212 188.999C271.212 188.999 239.393 201.316 226.456 201.193C210.854 201.044 203.82 159.618 203.82 159.618" stroke="#B9743D" stroke-width="32.7167" stroke-linecap="round"/>
<path d="M191.315 245.109C211.897 242.453 206.53 162.019 195.84 158.392C189.61 156.278 145.4 131.165 120.05 150.833C96.9833 168.73 103.855 199.089 103.711 217.073C101.04 243.853 170.734 247.764 191.315 245.109Z" fill="#C5824D" stroke="#C5824D" stroke-width="34.4155" stroke-linecap="round"/>
<path d="M97.6656 149.747C97.6656 149.747 75.8353 176.186 70.5896 189.057C64.2632 204.579 90.6705 228.672 90.6705 228.672" stroke="#E28C48" stroke-width="32.7167" stroke-linecap="round"/>
<path d="M140.763 194.841C141.012 175.865 160.84 167.507 170.723 165.7C180.309 164.538 199.377 170.158 198.96 201.934C198.439 241.654 154.522 231.194 150.182 226.555C145.288 221.323 140.452 218.561 140.763 194.841Z" fill="#FADFCB" stroke="#FADFCB" stroke-width="12.8214" stroke-linecap="round"/>
<ellipse cx="33.8675" cy="268.076" rx="29.8605" ry="19.907" transform="rotate(95.7501 33.8675 268.076)" fill="#C5824D"/>
<ellipse cx="210.992" cy="325.222" rx="31.0179" ry="20.8531" transform="rotate(8.57264 210.992 325.222)" fill="#B9743D"/>
</svg>
