<svg width="4381" height="1080" viewBox="0 0 4381 1080" fill="none" xmlns="http://www.w3.org/2000/svg">
<g clip-path="url(#clip0_1046_180)">
<rect width="4381" height="1080" fill="url(#paint0_linear_1046_180)"/>
<path d="M1245.16 10H1206.66L1193 754H1270L1245.16 10Z" fill="#86E7BE"/>
<path d="M302.161 -39H263.661L250 811H327L302.161 -39Z" fill="#86E7BE"/>
<path d="M926.161 63H887.661L874 807H951L926.161 63Z" fill="#86E7BE"/>
<path d="M1869.16 67H1830.66L1817 811H1894L1869.16 67Z" fill="#86E7BE"/>
<path d="M1623.01 35.1837L1585.36 43.2185L1727.27 773.687L1802.57 757.618L1623.01 35.1837Z" fill="#86E7BE"/>
<path d="M2305.16 92H2266.66L2253 836H2330L2305.16 92Z" fill="#86E7BE"/>
<path d="M2585.16 92H2546.66L2533 836H2610L2585.16 92Z" fill="#86E7BE"/>
<path d="M3147.16 98H3108.66L3095 842H3172L3147.16 98Z" fill="#86E7BE"/>
<path d="M732.161 92H693.661L680 836H757L732.161 92Z" fill="#86E7BE"/>
<path d="M3007 131C2882.67 312.11 2573.21 565.663 2330 131" stroke="#59CD42" stroke-width="12"/>
<path d="M4035 26C3945.93 207.11 3724.24 460.663 3550 26" stroke="#59CD42" stroke-width="12"/>
<path d="M3808 76C3655.17 280.503 3274.78 566.807 2975.82 76M3302.08 76C3185.77 223.055 2922.12 428.931 2798 76" stroke="#59CD42" stroke-width="12"/>
<path d="M2011.75 604.988C2068.09 680.614 1989.84 756.047 1982.01 753.947C2002.36 808.561 1973.07 812.861 1958.54 821.165C1954.88 858.955 1935.06 930.031 1884.98 912.019C1834.9 894.006 1820.29 870.554 1819.25 861.079C1808.29 881.386 1775.94 922 1734.15 922C1692.36 922 1653.49 872.983 1639.27 848.475C1633.54 870.785 1607.03 910.004 1546.94 888.389C1486.84 866.774 1479.12 821.962 1482.77 802.259C1392.63 732.398 1445.21 659.731 1482.77 632.13C1437.24 526.277 1506.58 488.57 1546.94 482.948C1542.24 450.017 1550.69 377.736 1622.06 352.069C1693.42 326.401 1733.17 404.442 1744.13 446.671C1929.43 380.026 1919.41 494.908 1891.24 560.68C1912.63 550.24 1966.67 544.487 2011.75 604.988Z" fill="#63D0B4"/>
<path d="M1107.86 -52C1060.24 253.12 965 867.937 965 886.244L1092.14 922L1165 -52H1107.86Z" fill="#6DC29C"/>
<path d="M2429.86 -60C2382.24 245.12 2287 859.937 2287 878.244L2414.14 914L2487 -60H2429.86Z" fill="#6DC29C"/>
<path d="M3004.14 -39C3051.76 266.12 3147 880.937 3147 899.244L3019.86 935L2947 -39H3004.14Z" fill="#6DC29C"/>
<path fill-rule="evenodd" clip-rule="evenodd" d="M3330.75 469.567C3328.34 459.903 3320.14 442.659 3306.61 450.995C3293.08 459.331 3301.44 526.824 3307.31 559.528C3303.96 551.513 3294.12 538.168 3281.6 548.909C3269.08 559.65 3294.23 641.709 3307.49 680.781C3327.27 730.638 3397.02 609.297 3405.66 582.734C3411.93 563.47 3394.54 565.745 3383.67 567.344L3396.98 547.023C3444.38 465.312 3418.57 457.003 3399.75 463.062C3411.07 415.401 3425.04 318.907 3390.35 314.222C3355.66 309.538 3336.16 415.834 3330.75 469.567Z" fill="#54B769"/>
<path d="M3536.86 -46C3489.24 259.12 3394 873.937 3394 892.244L3521.14 928L3594 -46H3536.86Z" fill="#6DC29C"/>
<path d="M1993.86 -11C1946.24 294.12 1851 908.937 1851 927.244L1978.14 963L2051 -11H1993.86Z" fill="#6DC29C"/>
<path d="M384.143 33C431.762 338.12 527 952.937 527 971.244L399.857 1007L327 33H384.143Z" fill="#5CA486" fill-opacity="0.75"/>
<path d="M169.089 -54.0807C153.333 254.331 122.296 875.705 124.192 893.914L254.355 916.307L225.924 -60.0001L169.089 -54.0807Z" fill="#5CA486" fill-opacity="0.75"/>
<path d="M1617.75 718.326C1674.09 780.273 1595.84 842.063 1588.01 840.342C1608.36 885.078 1579.07 888.601 1564.54 895.403C1560.88 926.358 1541.06 984.579 1490.98 969.824C1440.9 955.07 1426.29 935.859 1425.25 928.098C1414.29 944.732 1381.94 978 1340.15 978C1298.36 978 1259.49 937.849 1245.27 917.773C1239.54 936.049 1213.03 968.173 1152.94 950.468C1092.84 932.763 1085.12 896.056 1088.77 879.916C998.629 822.692 1051.21 763.168 1088.77 740.559C1043.24 653.852 1112.58 622.964 1152.94 618.359C1148.24 591.384 1156.69 532.177 1228.06 511.152C1299.42 490.127 1339.17 554.053 1350.13 588.644C1535.43 534.052 1525.41 628.156 1497.24 682.032C1518.63 673.48 1572.67 668.768 1617.75 718.326Z" fill="#93F0D8"/>
<path d="M2503.75 764.326C2560.09 826.273 2481.84 888.063 2474.01 886.342C2494.36 931.078 2465.07 934.601 2450.54 941.403C2446.88 972.358 2427.06 1030.58 2376.98 1015.82C2326.9 1001.07 2312.29 981.859 2311.25 974.098C2300.29 990.732 2267.94 1024 2226.15 1024C2184.36 1024 2145.49 983.849 2131.27 963.773C2125.54 982.049 2099.03 1014.17 2038.94 996.468C1978.84 978.763 1971.12 942.056 1974.77 925.916C1884.63 868.692 1937.21 809.168 1974.77 786.559C1929.24 699.852 1998.58 668.964 2038.94 664.359C2034.24 637.384 2042.69 578.177 2114.06 557.152C2185.42 536.127 2225.17 600.053 2236.13 634.644C2421.43 580.052 2411.41 674.156 2383.24 728.032C2404.63 719.48 2458.67 714.768 2503.75 764.326Z" fill="#A0F5DF"/>
<path d="M3703.78 729.326C3746.11 791.273 3687.32 853.063 3681.45 851.342C3696.73 896.078 3674.73 899.601 3663.81 906.403C3661.07 937.358 3646.17 995.579 3608.55 980.824C3570.93 966.07 3559.95 946.859 3559.17 939.098C3550.94 955.732 3526.63 989 3495.24 989C3463.84 989 3434.64 948.849 3423.96 928.773C3419.65 947.049 3399.74 979.173 3354.6 961.468C3309.45 943.763 3303.65 907.056 3306.39 890.916C3238.67 833.692 3278.18 774.168 3306.39 751.559C3272.19 664.852 3324.28 633.964 3354.6 629.359C3351.07 602.384 3357.42 543.177 3411.03 522.152C3464.64 501.127 3494.51 565.053 3502.74 599.644C3641.94 545.052 3634.42 639.156 3613.25 693.032C3629.32 684.48 3669.92 679.768 3703.78 729.326Z" fill="#A0F5DF"/>
<path d="M3703.78 729.326C3746.11 791.273 3687.32 853.063 3681.45 851.342C3696.73 896.078 3674.73 899.601 3663.81 906.403C3661.07 937.358 3646.17 995.579 3608.55 980.824C3570.93 966.07 3559.95 946.859 3559.17 939.098C3550.94 955.732 3526.63 989 3495.24 989C3463.84 989 3434.64 948.849 3423.96 928.773C3419.65 947.049 3399.74 979.173 3354.6 961.468C3309.45 943.763 3303.65 907.056 3306.39 890.916C3238.67 833.692 3278.18 774.168 3306.39 751.559C3272.19 664.852 3324.28 633.964 3354.6 629.359C3351.07 602.384 3357.42 543.177 3411.03 522.152C3464.64 501.127 3494.51 565.053 3502.74 599.644C3641.94 545.052 3634.42 639.156 3613.25 693.032C3629.32 684.48 3669.92 679.768 3703.78 729.326Z" fill="#A0F5DF"/>
<path d="M4158.82 717.326C4206.6 779.273 4140.24 841.063 4133.61 839.342C4150.86 884.078 4126.02 887.601 4113.7 894.403C4110.6 925.358 4093.79 983.579 4051.32 968.824C4008.84 954.07 3996.46 934.859 3995.57 927.098C3986.28 943.732 3958.84 977 3923.4 977C3887.96 977 3854.99 936.849 3842.94 916.773C3838.07 935.049 3815.6 967.173 3764.63 949.468C3713.66 931.763 3707.11 895.056 3710.21 878.916C3633.76 821.692 3678.36 762.168 3710.21 739.559C3671.6 652.852 3730.4 621.964 3764.63 617.359C3760.65 590.384 3767.81 531.177 3828.34 510.152C3888.86 489.127 3922.57 553.053 3931.86 587.644C4089.01 533.052 4080.51 627.156 4056.62 681.032C4074.76 672.48 4120.6 667.768 4158.82 717.326Z" fill="#63D0B4"/>
<path d="M3066.75 686.22C3123.09 758.689 3044.84 830.974 3037.01 828.961C3057.36 881.296 3028.07 885.417 3013.54 893.374C3009.88 929.586 2990.06 997.696 2939.98 980.435C2889.9 963.175 2875.29 940.701 2874.25 931.622C2863.29 951.081 2830.94 990 2789.15 990C2747.36 990 2708.49 943.029 2694.27 919.543C2688.54 940.923 2662.03 978.504 2601.94 957.792C2541.84 937.079 2534.12 894.138 2537.77 875.257C2447.63 808.312 2500.21 738.678 2537.77 712.229C2492.24 610.794 2561.58 574.661 2601.94 569.274C2597.24 537.717 2605.69 468.454 2677.06 443.857C2748.42 419.261 2788.17 494.045 2799.13 534.511C2984.43 470.647 2974.41 580.734 2946.24 643.761C2967.63 633.757 3021.67 628.244 3066.75 686.22Z" fill="#63D0B4"/>
<path d="M542.18 693.649C591.748 748.363 522.904 802.937 516.019 801.417C533.919 840.929 508.15 844.04 495.366 850.048C492.153 877.388 474.712 928.81 430.652 915.779C386.591 902.747 373.74 885.78 372.822 878.925C363.184 893.617 334.716 923 297.949 923C261.183 923 226.983 887.537 214.48 869.806C209.431 885.947 186.116 914.321 133.243 898.683C80.3705 883.045 73.5777 850.625 76.7904 836.37C-2.51823 785.827 43.7451 733.254 76.7904 713.285C36.7341 636.703 97.7355 609.423 133.243 605.356C129.113 581.53 136.548 529.237 199.334 510.667C262.12 492.097 297.093 548.558 306.732 579.11C469.756 530.893 460.944 614.008 436.16 661.593C454.977 654.04 502.526 649.878 542.18 693.649Z" fill="#76DAC0"/>
<path d="M985.18 769.702C1034.75 819.155 965.904 868.481 959.019 867.108C976.919 902.821 951.15 905.633 938.366 911.063C935.153 935.774 917.712 982.252 873.652 970.473C829.591 958.695 816.74 943.359 815.822 937.163C806.184 950.442 777.716 977 740.949 977C704.183 977 669.983 944.947 657.48 928.921C652.431 943.51 629.116 969.155 576.243 955.021C523.371 940.887 516.578 911.584 519.79 898.7C440.482 853.017 486.745 805.499 519.79 787.45C479.734 718.232 540.735 693.575 576.243 689.898C572.113 668.364 579.548 621.099 642.334 604.315C705.12 587.53 740.093 638.562 749.732 666.176C912.756 622.596 903.944 697.719 879.16 740.728C897.977 733.902 945.526 730.139 985.18 769.702Z" fill="#63D0B4"/>
<path d="M878.69 854.623C873.049 856.825 867.311 858.586 861.536 859.743C839.921 864.066 828.45 848.123 822.34 829.582C818.139 816.817 816.797 802.963 817.963 789.759C820.451 761.345 832.822 734.355 847.48 710.25C847.547 710.144 847.603 710.045 847.67 709.939C857.952 715.162 866.209 719.104 872.181 721.879C867.455 717.164 860.81 710.684 852.211 702.708C853.495 700.712 854.805 698.73 856.129 696.769C860.686 698.989 864.598 700.844 867.853 702.358C865.296 699.825 862.189 696.77 858.523 693.246C873.156 672.011 889.991 652.274 907.875 633.69C916.476 640.867 923.437 646.399 928.538 650.371C925.044 644.816 920.117 637.169 913.687 627.692C915.315 626.048 916.954 624.397 918.601 622.757C951.277 590.222 987.106 560.926 1024.48 534C1023.7 534.553 1024.33 541.968 1024.3 543C1024.15 548.24 1023.92 553.484 1023.62 558.714C1022.91 571.044 1021.91 583.371 1020.55 595.664C1009.86 595.392 1002.6 596.009 1000.12 596.245C1002.28 597.727 1008.84 602.151 1019.14 607.469C1017.32 621.663 1015.02 635.792 1012.23 649.813C998.961 649.199 989.892 649.972 987.059 650.231C989.452 651.878 997.196 657.115 1009.42 663.17C1000.14 704.845 986.227 746.442 963.054 782.559C949.72 803.353 932.692 822.023 912.37 836.169C902.203 843.245 890.689 849.937 878.69 854.623Z" fill="#12504A"/>
<path d="M3967.54 819.677C3965.44 826.285 3962.81 832.67 3959.53 838.665C3947.27 861.099 3922.21 860.217 3898.63 852.702C3882.41 847.522 3867.27 839.013 3854.74 828.709C3827.74 806.552 3809.82 776.523 3796.59 746.463C3796.53 746.329 3796.47 746.209 3796.42 746.074C3809.66 740.507 3820.03 735.859 3827.46 732.444C3819.02 733.38 3807.3 734.802 3792.56 736.929C3791.52 734.376 3790.51 731.81 3789.53 729.247C3795.31 726.714 3800.21 724.502 3804.26 722.642C3799.71 723.161 3794.21 723.808 3787.8 724.628C3777.47 696.603 3770.36 667.652 3765.23 638.568C3779.17 635.88 3790.16 633.511 3798.13 631.716C3789.79 630.958 3778.21 630.019 3763.61 629.146C3763.19 626.531 3762.78 623.902 3762.38 621.275C3754.46 569.13 3752.26 516.427 3753.67 464C3753.63 465.088 3761.66 469.721 3762.69 470.471C3767.9 474.283 3773.06 478.164 3778.16 482.099C3790.16 491.379 3801.93 500.921 3813.39 510.763C3804.87 520.169 3799.9 527.115 3798.23 529.507C3801.41 528.607 3810.96 525.825 3824.31 520.308C3837.35 531.895 3849.96 543.861 3862.07 556.201C3851.22 567.679 3845.02 576.362 3843.1 579.087C3846.62 578.094 3857.91 574.814 3873.49 568.09C3908.75 605.637 3940.35 647.294 3959.24 693.419C3970.12 719.968 3975.99 748.345 3974.72 776.506C3974.09 790.593 3972.02 805.62 3967.54 819.677Z" fill="#12504A"/>
<path d="M4018.76 858.359C4012.87 862.016 4006.72 865.163 4000.34 867.595C3976.44 876.691 3957.96 859.743 3944.91 838.718C3935.94 824.242 3929.96 807.944 3927.12 791.967C3920.98 757.587 3926.85 723.11 3936.31 691.661C3936.35 691.522 3936.39 691.393 3936.43 691.254C3950.12 695.619 3961.02 698.822 3968.89 701.049C3961.86 696.28 3952.03 689.752 3939.44 681.794C3940.31 679.177 3941.21 676.572 3942.13 673.989C3948.16 675.811 3953.33 677.314 3957.61 678.529C3953.82 675.97 3949.21 672.888 3943.81 669.348C3954.15 641.329 3967.55 614.699 3982.54 589.254C3994.88 596.259 4004.78 601.597 4012.01 605.41C4006.15 599.413 3997.96 591.18 3987.43 581.035C3988.81 578.776 3990.2 576.506 3991.6 574.248C4019.44 529.454 4052 487.952 4087.12 449C4086.38 449.803 4089.48 458.541 4089.77 459.778C4091.26 466.063 4092.67 472.366 4093.98 478.665C4097.08 493.515 4099.84 508.416 4102.16 523.341C4089.57 524.963 4081.29 527.02 4078.46 527.754C4081.46 529.13 4090.53 533.218 4104.26 537.693C4106.66 554.973 4108.47 572.26 4109.67 589.51C4093.96 591.192 4083.61 593.766 4080.38 594.59C4083.7 596.121 4094.42 600.964 4110.63 605.969C4113.06 657.418 4110.03 709.617 4094.44 756.958C4085.47 784.214 4071.51 809.606 4052.26 830.195C4042.62 840.495 4031.3 850.58 4018.76 858.359Z" fill="#12504A"/>
<path d="M1501.84 838.892C1501.01 842.56 1499.93 846.125 1498.52 849.5C1493.24 862.132 1480.95 862.535 1469.19 859.278C1461.09 857.033 1453.42 852.939 1446.97 847.777C1433.07 836.678 1423.35 820.979 1415.93 805.098C1415.9 805.027 1415.87 804.964 1415.83 804.893C1422.13 801.399 1427.06 798.506 1430.58 796.387C1426.48 797.193 1420.8 798.379 1413.66 800.055C1413.07 798.703 1412.49 797.344 1411.94 795.984C1414.68 794.403 1417.01 793.027 1418.93 791.873C1416.72 792.316 1414.05 792.861 1410.94 793.533C1405 778.656 1400.61 763.163 1397.18 747.527C1403.91 745.574 1409.21 743.898 1413.05 742.642C1408.95 742.523 1403.26 742.42 1396.09 742.46C1395.8 741.053 1395.52 739.638 1395.24 738.223C1389.71 710.145 1386.97 681.56 1386 653C1386.02 653.593 1390.09 655.83 1390.61 656.201C1393.29 658.091 1395.93 660.02 1398.55 661.98C1404.71 666.604 1410.76 671.379 1416.68 676.327C1412.81 681.742 1410.61 685.695 1409.86 687.054C1411.39 686.454 1415.97 684.604 1422.32 681.134C1429.06 686.975 1435.61 693.038 1441.92 699.323C1436.98 705.947 1434.22 710.888 1433.37 712.437C1435.06 711.773 1440.48 709.591 1447.88 705.386C1466.31 724.563 1483.08 746.104 1493.78 770.522C1499.94 784.577 1503.71 799.802 1503.98 815.161C1504.12 822.845 1503.58 831.09 1501.84 838.892Z" fill="#12504A"/>
<path d="M550.578 33H512.905L476.167 825.495L476 836H536.739L530.588 461.369L629 148.921H618.236L530.588 392.277L550.578 33Z" fill="#0C4824"/>
<path d="M476 829.091L476.167 825.495M476.167 825.495L512.905 33H550.578L530.588 392.277L618.236 148.921H629L530.588 461.369L536.739 836H476L476.167 825.495Z" stroke="#176838"/>
<g filter="url(#filter0_d_1046_180)">
<path d="M858.387 -95H807.171L757.227 823.821L757 836H839.573L831.211 401.652L965 39.3987H950.367L831.211 321.547L858.387 -95Z" fill="#0C4824"/>
<path d="M757 827.99L757.227 823.821M757.227 823.821L807.171 -95H858.387L831.211 321.547L950.367 39.3987H965L831.211 401.652L839.573 836H757L757.227 823.821Z" stroke="#176838"/>
</g>
<path d="M1473.42 33H1511.1L1547.83 825.495L1548 836H1487.26L1493.41 461.369L1395 148.921H1405.76L1493.41 392.277L1473.42 33Z" fill="#0C4824"/>
<path d="M2595.85 39H2661.6L2725.71 831.495L2726 842H2620.01L2630.74 467.369L2459 154.921H2477.78L2630.74 398.277L2595.85 39Z" fill="#0C4824"/>
<path d="M3325.15 39H3259.4L3195.29 831.495L3195 842H3300.99L3290.26 467.369L3462 154.921H3443.22L3290.26 398.277L3325.15 39Z" fill="#0C4824"/>
<path d="M2079.34 33H2046.84L2015.14 825.495L2015 836H2067.4L2062.1 461.369L2147 148.921H2137.71L2062.1 392.277L2079.34 33Z" fill="#186C39"/>
<path d="M544.953 -216.046C589.335 -231.555 637.665 -231.555 682.047 -216.046L685.159 -214.958C705.098 -207.991 726.052 -204.371 747.172 -204.247L785.167 -204.023C817.064 -203.835 847.277 -189.685 867.844 -165.304L870.663 -161.962C881.046 -149.653 894.46 -140.268 909.581 -134.732L945.556 -121.56C969.13 -112.93 982.495 -87.9698 976.662 -63.5525C973.132 -48.7767 976.6 -33.1748 986.072 -21.2979C1004.18 1.41292 998.856 34.7791 974.57 50.7182L961.931 59.0132C949.144 67.4055 939.839 80.1553 935.746 94.8925L935.269 96.6096C928.23 121.954 907.178 140.948 881.246 145.353L836.234 152.999C818.123 156.076 800.796 162.693 785.245 172.472L781.166 175.037C747.628 196.125 707.589 204.358 668.452 198.211L645.74 194.644C624.377 191.288 602.622 191.288 581.26 194.644L558.548 198.211C519.411 204.358 479.372 196.125 445.834 175.037L441.755 172.472C426.204 162.693 408.877 156.076 390.766 152.999L345.754 145.353C319.822 140.948 298.77 121.954 291.731 96.6096L291.254 94.8925C287.161 80.1552 277.856 67.4055 265.069 59.0132L252.43 50.7182C228.144 34.779 222.815 1.41293 240.928 -21.2979C250.4 -33.1748 253.868 -48.7767 250.338 -63.5525C244.504 -87.9698 257.87 -112.93 281.444 -121.56L317.419 -134.732C332.54 -140.268 345.954 -149.653 356.337 -161.962L359.156 -165.304C379.723 -189.685 409.936 -203.835 441.833 -204.023L479.828 -204.247C500.948 -204.371 521.902 -207.991 541.841 -214.958L544.953 -216.046Z" fill="#197B41"/>
<path d="M1326.55 -225.326C1358.48 -234.898 1392.52 -234.898 1424.45 -225.326L1450.61 -217.484C1464.93 -213.192 1479.75 -210.802 1494.69 -210.375L1528.35 -209.412C1562.17 -208.445 1594.53 -195.44 1619.61 -172.739L1622.9 -169.761C1633.96 -159.75 1646.81 -151.914 1660.78 -146.662L1691.93 -134.945C1715.8 -125.969 1732.36 -104.06 1734.5 -78.6528L1734.61 -77.3414C1735.72 -64.072 1741.08 -51.5131 1749.88 -41.5195C1770.53 -18.0711 1770.53 17.0711 1749.88 40.5195C1741.08 50.5131 1735.72 63.0721 1734.61 76.3414L1734.5 77.6528C1732.36 103.06 1715.8 124.969 1691.93 133.945L1660.78 145.662C1646.81 150.914 1633.96 158.75 1622.9 168.761L1619.61 171.739C1594.53 194.44 1562.17 207.445 1528.35 208.412L1494.69 209.375C1479.75 209.802 1464.93 212.192 1450.61 216.484L1424.45 224.326C1392.52 233.898 1358.48 233.898 1326.55 224.326L1300.39 216.484C1286.07 212.192 1271.25 209.802 1256.31 209.375L1222.65 208.412C1188.83 207.445 1156.47 194.44 1131.39 171.739L1128.1 168.761C1117.04 158.75 1104.19 150.914 1090.22 145.662L1059.07 133.945C1035.2 124.969 1018.64 103.06 1016.5 77.6528L1016.39 76.3414C1015.28 63.0721 1009.92 50.5131 1001.12 40.5195C980.473 17.0711 980.473 -18.0711 1001.12 -41.5195C1009.92 -51.5131 1015.28 -64.072 1016.39 -77.3414L1016.5 -78.6528C1018.64 -104.06 1035.2 -125.969 1059.07 -134.945L1090.22 -146.662C1104.19 -151.914 1117.04 -159.75 1128.1 -169.761L1131.39 -172.739C1156.47 -195.44 1188.83 -208.445 1222.65 -209.412L1256.31 -210.375C1271.25 -210.802 1286.07 -213.192 1300.39 -217.484L1326.55 -225.326Z" fill="#197B41"/>
<path d="M3122.55 -192.326C3154.48 -201.898 3188.52 -201.898 3220.45 -192.326L3246.61 -184.484C3260.93 -180.192 3275.75 -177.802 3290.69 -177.375L3324.35 -176.412C3358.17 -175.445 3390.53 -162.44 3415.61 -139.739L3418.9 -136.761C3429.96 -126.75 3442.81 -118.914 3456.78 -113.662L3487.93 -101.945C3511.8 -92.9694 3528.36 -71.0599 3530.5 -45.6528L3530.61 -44.3414C3531.72 -31.072 3537.08 -18.5131 3545.88 -8.51949C3566.53 14.9289 3566.53 50.0711 3545.88 73.5195C3537.08 83.5131 3531.72 96.0721 3530.61 109.341L3530.5 110.653C3528.36 136.06 3511.8 157.969 3487.93 166.945L3456.78 178.662C3442.81 183.914 3429.96 191.75 3418.9 201.761L3415.61 204.739C3390.53 227.44 3358.17 240.445 3324.35 241.412L3290.69 242.375C3275.75 242.802 3260.93 245.192 3246.61 249.484L3220.45 257.326C3188.52 266.898 3154.48 266.898 3122.55 257.326L3096.39 249.484C3082.07 245.192 3067.25 242.802 3052.31 242.375L3018.65 241.412C2984.83 240.445 2952.47 227.44 2927.39 204.739L2924.1 201.761C2913.04 191.75 2900.19 183.914 2886.22 178.662L2855.07 166.945C2831.2 157.969 2814.64 136.06 2812.5 110.653L2812.39 109.341C2811.28 96.0721 2805.92 83.5131 2797.12 73.5195C2776.47 50.0711 2776.47 14.9289 2797.12 -8.51949C2805.92 -18.5131 2811.28 -31.072 2812.39 -44.3414L2812.5 -45.6528C2814.64 -71.0599 2831.2 -92.9694 2855.07 -101.945L2886.22 -113.662C2900.19 -118.914 2913.04 -126.75 2924.1 -136.761L2927.39 -139.739C2952.47 -162.44 2984.83 -175.445 3018.65 -176.412L3052.31 -177.375C3067.25 -177.802 3082.07 -180.192 3096.39 -184.484L3122.55 -192.326Z" fill="#197B41"/>
<path d="M2497.65 -152.772C2528.77 -168.053 2565.23 -168.053 2596.35 -152.772L2614.61 -143.811C2632.33 -135.112 2652.03 -131.252 2671.73 -132.62L2715.25 -135.644C2744.48 -137.676 2772.33 -122.18 2786.26 -96.3982C2795.6 -79.1198 2811.53 -66.1342 2830.38 -60.6049L2864.53 -50.5851C2889.08 -43.3817 2901.69 -16.229 2891.36 7.17784C2884.27 23.2511 2887.83 42.0345 2900.31 54.3951L2901.08 55.1503C2921.96 75.822 2917.05 110.769 2891.28 124.891L2878.02 132.162C2862.26 140.801 2852.14 157.031 2851.32 174.986C2850.16 200.474 2830.51 221.271 2805.13 223.88L2761.26 228.391C2740.05 230.572 2720.05 239.303 2704.02 253.373L2702.62 254.603C2675.75 278.198 2638.98 287.039 2604.32 278.237L2574.57 270.681C2556.48 266.087 2537.52 266.087 2519.43 270.681L2489.68 278.237C2455.02 287.038 2418.25 278.198 2391.38 254.603L2389.98 253.373C2373.95 239.303 2353.95 230.572 2332.74 228.391L2288.87 223.88C2263.49 221.271 2243.84 200.474 2242.68 174.986C2241.86 157.031 2231.74 140.801 2215.98 132.162L2202.72 124.891C2176.95 110.769 2172.04 75.822 2192.92 55.1503L2193.69 54.3951C2206.17 42.0345 2209.73 23.2511 2202.64 7.17784C2192.31 -16.229 2204.92 -43.3817 2229.47 -50.5851L2263.62 -60.6048C2282.47 -66.1342 2298.4 -79.1198 2307.74 -96.3983C2321.67 -122.18 2349.52 -137.676 2378.75 -135.644L2422.27 -132.62C2441.97 -131.252 2461.67 -135.112 2479.39 -143.811L2497.65 -152.772Z" fill="#1CBD5E"/>
<path d="M1120 101C1226.51 252.679 1491.64 465.03 1700 101" stroke="#197B41" stroke-width="12"/>
<path d="M1934.63 -219.583C1963.83 -232.58 1997.17 -232.58 2026.37 -219.583L2045.42 -211.103C2062.59 -203.461 2081.4 -200.23 2100.13 -201.703L2132.03 -204.21C2163 -206.646 2193.2 -193.713 2212.81 -169.613C2225.84 -153.608 2243.74 -142.3 2263.78 -137.414L2294.43 -129.944C2319.08 -123.936 2336.42 -101.842 2336.4 -76.4709C2336.38 -58.8432 2344.81 -42.2757 2359.08 -31.9206L2367.25 -25.9862C2390.38 -9.20268 2394.33 23.9395 2376.26 46.0719C2365.27 59.5354 2362.17 78.0529 2368.4 94.2788C2377.64 118.363 2366.4 145.468 2342.82 155.933L2320.59 165.798C2303.4 173.43 2289.96 187.605 2283.25 205.181C2273.51 230.693 2249.94 248.31 2222.72 250.427L2189.2 253.033C2168.39 254.651 2148.44 262.01 2131.56 274.292L2126.34 278.097C2099.49 297.636 2065.4 304.355 2033.15 296.463L2007.31 290.141C1989.7 285.831 1971.3 285.831 1953.69 290.141L1927.85 296.463C1895.6 304.355 1861.51 297.636 1834.66 278.097L1829.44 274.292C1812.56 262.01 1792.61 254.651 1771.8 253.033L1738.28 250.427C1711.06 248.31 1687.49 230.693 1677.75 205.181C1671.04 187.605 1657.6 173.43 1640.41 165.798L1618.18 155.933C1594.6 145.468 1583.36 118.363 1592.6 94.2788C1598.83 78.0529 1595.73 59.5354 1584.74 46.0719C1566.67 23.9395 1570.62 -9.2027 1593.75 -25.9862L1601.92 -31.9206C1616.19 -42.2757 1624.62 -58.8432 1624.6 -76.4709C1624.58 -101.842 1641.92 -123.936 1666.57 -129.944L1697.22 -137.414C1717.26 -142.3 1735.16 -153.608 1748.19 -169.613C1767.8 -193.713 1798 -206.646 1828.97 -204.21L1860.87 -201.703C1879.6 -200.23 1898.41 -203.461 1915.58 -211.103L1934.63 -219.583Z" fill="#146635"/>
<path d="M1487.71 -281.262C1507.84 -286.975 1529.16 -286.975 1549.29 -281.262L1604.76 -265.522C1616.6 -262.163 1628.91 -260.763 1641.2 -261.379L1706.24 -264.639C1733.37 -265.999 1760.08 -257.526 1781.46 -240.776L1785.07 -237.944C1799.49 -226.646 1816.57 -219.237 1834.67 -216.424L1896.06 -206.887C1912.98 -204.258 1925.45 -189.677 1925.42 -172.555C1925.4 -159.018 1933.25 -146.705 1945.54 -141.02L1965.37 -131.84C1985.48 -122.534 1988.63 -95.2523 1971.16 -81.6147L1969.22 -80.0943C1958.53 -71.7451 1955.75 -56.7292 1962.75 -45.108C1971.87 -29.9523 1964.09 -10.268 1947.07 -5.45132L1900.75 7.65521C1885.26 12.0382 1872.02 22.171 1863.76 35.9829C1852.92 54.0811 1833.76 65.5747 1812.7 66.619L1742.68 70.0896C1728.18 70.8083 1713.96 74.3192 1700.79 80.4294L1667.89 95.6956C1647.65 105.088 1625.07 108.265 1603.02 104.826L1535.89 94.3523C1524.37 92.555 1512.63 92.555 1501.11 94.3523L1433.98 104.826C1411.93 108.265 1389.35 105.088 1369.11 95.6956L1336.21 80.4294C1323.04 74.3192 1308.82 70.8083 1294.32 70.0896L1224.3 66.619C1203.24 65.5747 1184.08 54.0811 1173.24 35.9829C1164.98 22.171 1151.74 12.0382 1136.25 7.65521L1089.93 -5.45132C1072.91 -10.268 1065.13 -29.9523 1074.25 -45.108C1081.25 -56.7292 1078.47 -71.7451 1067.78 -80.0943L1065.84 -81.6147C1048.37 -95.2523 1051.52 -122.534 1071.63 -131.84L1091.46 -141.02C1103.75 -146.705 1111.6 -159.018 1111.58 -172.555C1111.55 -189.677 1124.02 -204.258 1140.94 -206.887L1202.33 -216.424C1220.43 -219.237 1237.51 -226.646 1251.93 -237.944L1255.54 -240.776C1276.92 -257.526 1303.63 -265.999 1330.76 -264.639L1395.8 -261.379C1408.09 -260.763 1420.4 -262.163 1432.24 -265.522L1487.71 -281.262Z" fill="#0F4626"/>
<path d="M776.198 -187.712C798.819 -195.049 823.181 -195.049 845.802 -187.712L859.316 -183.329C872.619 -179.014 886.608 -177.211 900.57 -178.011L931.321 -179.772C950.982 -180.899 970.282 -174.147 984.953 -161.009L985.743 -160.302C995.489 -151.574 1007.48 -145.738 1020.36 -143.45L1056.11 -137.102C1069.04 -134.805 1078.46 -123.552 1078.44 -110.416C1078.42 -100.374 1083.97 -91.149 1092.85 -86.4536L1103.91 -80.6017C1118.31 -72.9843 1120.7 -53.3423 1108.55 -42.4935L1107.59 -41.6406C1100.14 -34.9913 1098.18 -24.1228 1102.84 -15.2884C1109.12 -3.34846 1103.13 11.3774 1090.29 15.5303L1063.42 24.2198C1052.49 27.7544 1043.39 35.4335 1038.06 45.6081C1030.9 59.2788 1017.08 68.1823 1001.67 69.0553L966.918 71.0246C951.76 71.8835 936.966 76.0115 923.552 83.1255L922.5 83.6834C900.65 95.2721 875.548 99.2096 851.198 94.8678L830.801 91.2308C817.704 88.8954 804.296 88.8954 791.199 91.2308L770.802 94.8678C746.452 99.2096 721.35 95.2721 699.5 83.6834L698.448 83.1255C685.034 76.0115 670.24 71.8835 655.082 71.0246L620.325 69.0553C604.918 68.1823 591.102 59.2788 583.941 45.6082C578.612 35.4335 569.505 27.7544 558.577 24.2198L531.71 15.5303C518.869 11.3774 512.875 -3.34846 519.165 -15.2884C523.819 -24.1228 521.856 -34.9913 514.407 -41.6406L513.452 -42.4934C501.298 -53.3423 503.688 -72.9843 518.089 -80.6017L529.152 -86.4536C538.029 -91.149 543.576 -100.374 543.562 -110.416C543.544 -123.552 552.961 -134.805 565.894 -137.102L601.641 -143.45C614.522 -145.738 626.511 -151.574 636.257 -160.302L637.046 -161.009C651.718 -174.147 671.018 -180.899 690.679 -179.772L721.43 -178.011C735.392 -177.211 749.381 -179.014 762.684 -183.329L776.198 -187.712Z" fill="#0F4626"/>
<path d="M3569.86 -253.772C3587.05 -257.867 3604.95 -257.867 3622.14 -253.772L3704.81 -234.079C3714.92 -231.67 3725.31 -230.671 3735.69 -231.108L3833.38 -235.218C3857.01 -236.213 3880.35 -229.756 3900.11 -216.76L3918.04 -204.969C3932.3 -195.588 3948.5 -189.567 3965.43 -187.358L4051.78 -176.095C4068.34 -173.935 4080.71 -159.811 4080.68 -143.111C4080.66 -129.393 4089.07 -117.071 4101.86 -112.103L4129.82 -101.239C4151.12 -92.962 4154.16 -64.0682 4135.05 -51.5364L4131.91 -49.4794C4120.26 -41.8375 4117.31 -26.0262 4125.43 -14.7001C4135.59 -0.538635 4128.14 19.4 4111.18 23.4279L4047.54 38.5463C4031.44 42.3712 4017.27 51.9044 4007.67 65.3783L4006.94 66.3924C3994.09 84.4096 3973.65 95.4859 3951.54 96.406L3855.63 100.397C3843.21 100.914 3830.96 103.481 3819.38 107.993L3763.89 129.609C3746.22 136.493 3727.1 138.81 3708.3 136.348L3610.65 123.559C3600.92 122.285 3591.08 122.285 3581.35 123.559L3483.7 136.348C3464.9 138.81 3445.78 136.493 3428.11 129.609L3372.62 107.993C3361.04 103.481 3348.79 100.914 3336.37 100.397L3240.46 96.406C3218.35 95.4859 3197.91 84.4096 3185.06 66.3924L3184.33 65.3783C3174.73 51.9044 3160.56 42.3712 3144.46 38.5463L3080.82 23.4279C3063.86 19.4 3056.41 -0.538635 3066.57 -14.7001C3074.69 -26.0262 3071.74 -41.8374 3060.09 -49.4794L3056.95 -51.5364C3037.84 -64.0682 3040.88 -92.962 3062.18 -101.239L3090.14 -112.102C3102.93 -117.071 3111.35 -129.393 3111.32 -143.111C3111.29 -159.811 3123.66 -173.935 3140.22 -176.095L3226.57 -187.358C3243.5 -189.567 3259.7 -195.588 3273.96 -204.969L3291.89 -216.76C3311.65 -229.755 3334.99 -236.213 3358.62 -235.218L3456.31 -231.108C3466.69 -230.671 3477.08 -231.67 3487.19 -234.079L3569.86 -253.772Z" fill="#0F4626"/>
<rect y="836" width="4381" height="281" fill="url(#paint1_linear_1046_180)"/>
<path d="M319 116C471.826 267.679 852.219 480.03 1151.18 116M824.918 116C941.23 225.07 1204.88 377.768 1329 116" stroke="#197B41" stroke-width="12"/>
<ellipse cx="683" cy="876.5" rx="144" ry="15.5" fill="#78CC53"/>
<ellipse cx="261" cy="878.5" rx="225" ry="26.5" fill="#55A930"/>
<ellipse cx="1382.5" cy="931.5" rx="317.5" ry="26.5" fill="#55A930"/>
<ellipse cx="3070" cy="882.5" rx="366" ry="26.5" fill="#55A930"/>
<ellipse cx="3718.5" cy="866.5" rx="212.5" ry="14.5" fill="#55A930"/>
<ellipse cx="1176.5" cy="851.5" rx="299.5" ry="15.5" fill="#78CC53"/>
<ellipse cx="2350.5" cy="851.5" rx="299.5" ry="15.5" fill="#78CC53"/>
<ellipse cx="1732.5" cy="882.5" rx="299.5" ry="15.5" fill="#78CC53"/>
<ellipse cx="2544.5" cy="919.5" rx="299.5" ry="15.5" fill="#78CC53"/>
<ellipse cx="3718.5" cy="919.5" rx="299.5" ry="15.5" fill="#78CC53"/>
<ellipse cx="3100.5" cy="950.5" rx="299.5" ry="15.5" fill="#78CC53"/>
<path fill-rule="evenodd" clip-rule="evenodd" d="M362.604 628.769C355.074 621.06 338.033 609.44 330.112 624.633C322.192 639.827 366.965 698.299 390.341 725.636C382.842 719.985 366.427 712.906 360.756 729.795C355.086 746.684 423.366 809.572 457.066 838.811C502.705 874.559 500.523 723.022 493.927 693.475C489.144 672.047 474.334 683.689 465.169 691.135L466.311 664.864C465.236 562.586 436.838 568.95 422.773 584.917C407.068 534.195 367.003 436.404 332.39 451.018C297.777 465.631 338.111 575.608 362.604 628.769Z" fill="#54B769"/>
<path d="M597.332 836H538.027C532.276 823.817 524.656 797.732 540.183 790.853C559.592 782.253 562.827 833.85 561.749 813.426C560.886 797.087 565.703 785.12 568.219 781.178C569.297 776.878 573.61 768.924 582.236 771.504C590.863 774.084 588.706 804.827 586.549 819.876L589.784 809.127C594.097 801.961 604.88 789.348 613.507 796.228C622.133 803.107 606.318 825.609 597.332 836Z" fill="#267467"/>
<path d="M786.332 836H727.027C721.276 823.817 713.656 797.732 729.183 790.853C748.592 782.253 751.827 833.85 750.749 813.426C749.886 797.087 754.703 785.12 757.219 781.178C758.297 776.878 762.61 768.924 771.236 771.504C779.863 774.084 777.706 804.827 775.549 819.876L778.784 809.127C783.097 801.961 793.88 789.348 802.507 796.228C811.133 803.107 795.318 825.609 786.332 836Z" fill="#267467"/>
<path d="M1456.33 836H1397.03C1391.28 823.817 1383.66 797.732 1399.18 790.853C1418.59 782.253 1421.83 833.85 1420.75 813.426C1419.89 797.087 1424.7 785.12 1427.22 781.178C1428.3 776.878 1432.61 768.924 1441.24 771.504C1449.86 774.084 1447.71 804.827 1445.55 819.876L1448.78 809.127C1453.1 801.961 1463.88 789.348 1472.51 796.228C1481.13 803.107 1465.32 825.609 1456.33 836Z" fill="#267467"/>
<path d="M1960.33 839H1901.03C1895.28 826.817 1887.66 800.732 1903.18 793.853C1922.59 785.253 1925.83 836.85 1924.75 816.426C1923.89 800.087 1928.7 788.12 1931.22 784.178C1932.3 779.878 1936.61 771.924 1945.24 774.504C1953.86 777.084 1951.71 807.827 1949.55 822.876L1952.78 812.127C1957.1 804.961 1967.88 792.348 1976.51 799.228C1985.13 806.107 1969.32 828.609 1960.33 839Z" fill="#267467"/>
<path d="M2326.16 836H2253.6C2246.56 813.884 2237.24 766.529 2256.24 754.04C2279.98 738.429 2283.94 832.097 2282.62 795.02C2281.57 765.358 2287.46 743.633 2290.54 736.477C2291.86 728.672 2297.13 714.231 2307.69 718.915C2318.24 723.598 2315.61 779.408 2312.97 806.728L2316.92 787.215C2322.2 774.205 2335.39 751.309 2345.95 763.798C2356.5 776.287 2337.15 817.136 2326.16 836Z" fill="#1CBD5E"/>
<path d="M2524.79 836H2431.99C2423 816.883 2411.07 775.949 2435.37 765.153C2465.74 751.659 2470.8 832.626 2469.11 800.577C2467.76 774.937 2475.3 756.157 2479.24 749.972C2480.92 743.225 2487.67 730.742 2501.17 734.791C2514.67 738.839 2511.29 787.082 2507.92 810.697L2512.98 793.83C2519.73 782.584 2536.6 762.792 2550.1 773.588C2563.6 784.383 2538.85 819.694 2524.79 836Z" fill="#267467"/>
<path d="M450.744 836H370.507C362.726 819.507 352.417 784.191 373.424 774.877C399.684 763.235 404.06 833.089 402.601 805.439C401.434 783.318 407.951 767.116 411.355 761.78C412.813 755.959 418.649 745.189 430.32 748.682C441.991 752.175 439.073 793.796 436.155 814.17L440.532 799.618C446.367 789.916 460.956 772.84 472.627 782.154C484.297 791.468 462.901 821.932 450.744 836Z" fill="#267467"/>
<path fill-rule="evenodd" clip-rule="evenodd" d="M3106.29 632.072C3099.72 624.583 3084.54 613.008 3076.33 626.613C3068.12 640.219 3106.46 696.391 3126.65 722.776C3120 717.187 3105.14 709.829 3098.93 725.111C3092.71 740.394 3152.65 801.827 3182.33 830.488C3222.75 865.755 3229.19 725.946 3224.71 698.373C3221.46 678.377 3207.05 688.36 3198.11 694.76L3200.64 670.599C3205.36 576.256 3178.61 580.685 3164.65 594.693C3152.89 547.138 3121.13 454.957 3088.15 466.676C3055.16 478.395 3086.5 581.823 3106.29 632.072Z" fill="#54B769"/>
<ellipse cx="1327.24" cy="785.937" rx="9.39957" ry="51.1102" transform="rotate(-12.3796 1327.24 785.937)" fill="#19705D"/>
<ellipse cx="1356.42" cy="788.628" rx="9.39957" ry="51.1102" transform="rotate(20.8839 1356.42 788.628)" fill="#19705D"/>
<ellipse cx="1359.71" cy="820.701" rx="9.39957" ry="29.6567" transform="rotate(59.2121 1359.71 820.701)" fill="#19705D"/>
<ellipse cx="1320.21" cy="816" rx="9.39957" ry="29.6567" transform="rotate(-43.4275 1320.21 816)" fill="#19705D"/>
<ellipse cx="2084.24" cy="785.937" rx="9.39957" ry="51.1102" transform="rotate(-12.3796 2084.24 785.937)" fill="#19705D"/>
<ellipse cx="2113.42" cy="788.628" rx="9.39957" ry="51.1102" transform="rotate(20.8839 2113.42 788.628)" fill="#19705D"/>
<ellipse cx="2116.71" cy="820.701" rx="9.39957" ry="29.6567" transform="rotate(59.2121 2116.71 820.701)" fill="#19705D"/>
<ellipse cx="2077.21" cy="816" rx="9.39957" ry="29.6567" transform="rotate(-43.4275 2077.21 816)" fill="#19705D"/>
<ellipse cx="3656.24" cy="783.937" rx="9.39957" ry="51.1102" transform="rotate(-12.3796 3656.24 783.937)" fill="#19705D"/>
<ellipse cx="3685.42" cy="786.628" rx="9.39957" ry="51.1102" transform="rotate(20.8839 3685.42 786.628)" fill="#19705D"/>
<ellipse cx="3688.71" cy="818.701" rx="9.39957" ry="29.6567" transform="rotate(59.2121 3688.71 818.701)" fill="#19705D"/>
<ellipse cx="3649.21" cy="814" rx="9.39957" ry="29.6567" transform="rotate(-43.4275 3649.21 814)" fill="#19705D"/>
<rect width="4381" height="1080" fill="url(#paint2_linear_1046_180)"/>
</g>
<defs>
<filter id="filter0_d_1046_180" x="752.49" y="-95.5" width="217.228" height="940" filterUnits="userSpaceOnUse" color-interpolation-filters="sRGB">
<feFlood flood-opacity="0" result="BackgroundImageFix"/>
<feColorMatrix in="SourceAlpha" type="matrix" values="0 0 0 0 0 0 0 0 0 0 0 0 0 0 0 0 0 0 127 0" result="hardAlpha"/>
<feOffset dy="4"/>
<feGaussianBlur stdDeviation="2"/>
<feComposite in2="hardAlpha" operator="out"/>
<feColorMatrix type="matrix" values="0 0 0 0 0 0 0 0 0 0 0 0 0 0 0 0 0 0 0.25 0"/>
<feBlend mode="normal" in2="BackgroundImageFix" result="effect1_dropShadow_1046_180"/>
<feBlend mode="normal" in="SourceGraphic" in2="effect1_dropShadow_1046_180" result="shape"/>
</filter>
<linearGradient id="paint0_linear_1046_180" x1="2191" y1="816.5" x2="2198.5" y2="14" gradientUnits="userSpaceOnUse">
<stop stop-color="#C3FFE1"/>
<stop offset="1" stop-color="#84ECC9"/>
</linearGradient>
<linearGradient id="paint1_linear_1046_180" x1="2189.81" y1="1117" x2="2192.39" y2="836.011" gradientUnits="userSpaceOnUse">
<stop stop-color="#4CA83A"/>
<stop offset="1" stop-color="#65B754"/>
</linearGradient>
<linearGradient id="paint2_linear_1046_180" x1="2190.5" y1="0" x2="2190.5" y2="1080" gradientUnits="userSpaceOnUse">
<stop stop-color="#13313C" stop-opacity="0.8"/>
<stop offset="0.110577" stop-color="#424242" stop-opacity="0.25"/>
<stop offset="0.240385" stop-color="#757575" stop-opacity="0"/>
</linearGradient>
<clipPath id="clip0_1046_180">
<rect width="4381" height="1080" fill="white"/>
</clipPath>
</defs>
</svg>
